<?xml version="1.0" encoding="UTF-8"?>
<!DOCTYPE svg PUBLIC "-//W3C//DTD SVG 1.1//EN" "http://www.w3.org/Graphics/SVG/1.1/DTD/svg11.dtd">
<svg xmlns="http://www.w3.org/2000/svg" version="1.1" width="640px" height="256px" style="shape-rendering:geometricPrecision; text-rendering:geometricPrecision; image-rendering:optimizeQuality; fill-rule:evenodd; clip-rule:evenodd" xmlns:xlink="http://www.w3.org/1999/xlink">
<g><path style="opacity:0.996" fill="#202c33" d="M 82.5,31.5 C 95.8333,31.5 109.167,31.5 122.5,31.5C 123.091,32.1515 123.757,32.8182 124.5,33.5C 122.203,34.8976 120.037,36.5643 118,38.5C 116.315,36.0122 114.981,36.3455 114,39.5C 113.667,39.1667 113.333,38.8333 113,38.5C 111.56,42.0104 109.227,43.677 106,43.5C 102.635,48.6028 98.1354,51.4361 92.5,52C 93.2853,54.4429 93.1186,56.9429 92,59.5C 91.6667,58.8333 91.3333,58.1667 91,57.5C 88.9999,60.1714 86.9999,62.1714 85,63.5C 84.0853,62.6721 83.4186,61.6721 83,60.5C 82.8171,63.3647 82.3171,66.0314 81.5,68.5C 81.1874,56.0867 81.5208,43.7533 82.5,31.5 Z"/></g>
<g><path style="opacity:1" fill="#161f26" d="M 82.5,31.5 C 81.5208,43.7533 81.1874,56.0867 81.5,68.5C 81.757,75.2055 81.4237,81.8722 80.5,88.5C 81.0403,92.6612 81.707,96.6612 82.5,100.5C 80.8411,107.385 80.1744,114.385 80.5,121.5C 79.8333,124.833 79.1667,128.167 78.5,131.5C 78.885,98.6792 78.385,65.6792 77,32.5C 75.9646,41.1359 75.298,49.8025 75,58.5C 74.6667,51.1667 74.3333,43.8333 74,36.5C 73.7104,38.0441 73.0437,39.3774 72,40.5C 71.2588,39.3595 70.4255,39.3595 69.5,40.5C 68.7492,39.624 68.2492,38.624 68,37.5C 67.8319,58.6707 67.3319,79.6707 66.5,100.5C 66.5,77.5 66.5,54.5 66.5,31.5C 71.8333,31.5 77.1667,31.5 82.5,31.5 Z"/></g>
<g><path style="opacity:1" fill="#1e2d37" d="M 158.5,31.5 C 191.833,31.5 225.167,31.5 258.5,31.5C 258.5,45.8333 258.5,60.1667 258.5,74.5C 254.131,75.7512 249.798,76.7512 245.5,77.5C 243.389,76.2584 241.389,76.2584 239.5,77.5C 239.167,77.5 238.833,77.5 238.5,77.5C 231.539,65.2578 220.873,58.9245 206.5,58.5C 195.715,46.7729 182.382,39.7729 166.5,37.5C 164.031,36.6829 161.365,36.1829 158.5,36C 162.19,35.5756 162.357,34.7423 159,33.5C 158.667,33.8333 158.333,34.1667 158,34.5C 157.53,33.4232 157.697,32.4232 158.5,31.5 Z"/></g>
<g><path style="opacity:1" fill="#f7b9b5" d="M 147.5,38.5 C 155.239,39.0809 162.573,41.0809 169.5,44.5C 170.795,45.4884 172.128,46.4884 173.5,47.5C 172.015,49.1607 171.348,50.8273 171.5,52.5C 168.14,50.8201 164.807,49.1534 161.5,47.5C 161.17,44.8906 159.67,43.2239 157,42.5C 153.979,43.9751 150.812,44.9751 147.5,45.5C 147.19,43.8564 146.19,42.8564 144.5,42.5C 143.811,41.2264 142.977,41.2264 142,42.5C 141.53,41.4232 141.697,40.4232 142.5,39.5C 144.042,38.6993 145.708,38.366 147.5,38.5 Z"/></g>
<g><path style="opacity:1" fill="#cd7778" d="M 188.5,62.5 C 186.742,62.1231 185.075,61.4565 183.5,60.5C 182.71,54.6512 179.377,50.3179 173.5,47.5C 172.128,46.4884 170.795,45.4884 169.5,44.5C 170.583,44.4606 171.583,44.1272 172.5,43.5C 180.367,47.2604 187.701,51.7604 194.5,57C 198.427,60.3572 200.594,64.5238 201,69.5C 199.667,67.5 198.333,65.5 197,63.5C 197.333,65.5 197.667,67.5 198,69.5C 195.499,66.1517 192.332,63.8184 188.5,62.5 Z"/></g>
<g><path style="opacity:1" fill="#4c4646" d="M 122.5,45.5 C 108.602,54.4 98.2691,66.4 91.5,81.5C 89.6197,83.7554 88.6197,86.4221 88.5,89.5C 86.1967,100.378 83.5301,111.045 80.5,121.5C 80.1744,114.385 80.8411,107.385 82.5,100.5C 84.6418,97.1996 85.9751,93.533 86.5,89.5C 85.448,89.6495 84.448,89.4828 83.5,89C 84.2489,87.2663 84.7489,85.433 85,83.5C 86.1096,81.9632 87.6096,81.2965 89.5,81.5C 92.1394,63.2317 102.139,50.8983 119.5,44.5C 120.417,45.1272 121.417,45.4606 122.5,45.5 Z"/></g>
<g><path style="opacity:1" fill="#2c3439" d="M 122.5,31.5 C 134.5,31.5 146.5,31.5 158.5,31.5C 157.697,32.4232 157.53,33.4232 158,34.5C 158.333,34.1667 158.667,33.8333 159,33.5C 162.357,34.7423 162.19,35.5756 158.5,36C 161.365,36.1829 164.031,36.6829 166.5,37.5C 159.978,37.1765 153.645,37.5098 147.5,38.5C 145.708,38.366 144.042,38.6993 142.5,39.5C 138.298,40.1316 134.298,41.1316 130.5,42.5C 127.673,43.1084 125.007,44.1084 122.5,45.5C 121.417,45.4606 120.417,45.1272 119.5,44.5C 102.139,50.8983 92.1394,63.2317 89.5,81.5C 87.6096,81.2965 86.1096,81.9632 85,83.5C 84.7489,85.433 84.2489,87.2663 83.5,89C 84.448,89.4828 85.448,89.6495 86.5,89.5C 85.9751,93.533 84.6418,97.1996 82.5,100.5C 81.707,96.6612 81.0403,92.6612 80.5,88.5C 81.4237,81.8722 81.757,75.2055 81.5,68.5C 82.3171,66.0314 82.8171,63.3647 83,60.5C 83.4186,61.6721 84.0853,62.6721 85,63.5C 86.9999,62.1714 88.9999,60.1714 91,57.5C 91.3333,58.1667 91.6667,58.8333 92,59.5C 93.1186,56.9429 93.2853,54.4429 92.5,52C 98.1354,51.4361 102.635,48.6028 106,43.5C 109.227,43.677 111.56,42.0104 113,38.5C 113.333,38.8333 113.667,39.1667 114,39.5C 114.981,36.3455 116.315,36.0122 118,38.5C 120.037,36.5643 122.203,34.8976 124.5,33.5C 123.757,32.8182 123.091,32.1515 122.5,31.5 Z"/></g>
<g><path style="opacity:1" fill="#a95a61" d="M 147.5,38.5 C 153.645,37.5098 159.978,37.1765 166.5,37.5C 182.382,39.7729 195.715,46.7729 206.5,58.5C 211.224,64.5589 215.557,70.8922 219.5,77.5C 219.657,78.8734 219.49,80.2068 219,81.5C 217.861,78.4167 216.528,75.4167 215,72.5C 214.833,73 214.667,73.5 214.5,74C 216.373,77.6544 217.207,81.4877 217,85.5C 215.06,79.6832 212.727,74.0166 210,68.5C 209.833,69 209.667,69.5 209.5,70C 211.865,77.4671 214.532,84.6337 217.5,91.5C 217.5,91.8333 217.5,92.1667 217.5,92.5C 217.672,93.4916 217.338,94.1583 216.5,94.5C 213.903,94.6432 211.569,95.4766 209.5,97C 206.421,98.0904 204.088,97.2571 202.5,94.5C 205.07,93.7771 207.403,92.6104 209.5,91C 205.303,92.2365 201.803,91.0698 199,87.5C 198.601,87.7284 198.435,88.0618 198.5,88.5C 196.353,83.5398 193.686,78.8731 190.5,74.5C 189.974,72.7697 188.974,71.4363 187.5,70.5C 187.167,69.8333 186.833,69.1667 186.5,68.5C 186.435,68.0618 186.601,67.7284 187,67.5C 188.765,69.7744 190.932,71.4411 193.5,72.5C 194.91,72.1322 195.91,71.2989 196.5,70C 193.884,67.21 191.218,64.71 188.5,62.5C 192.332,63.8184 195.499,66.1517 198,69.5C 197.667,67.5 197.333,65.5 197,63.5C 198.333,65.5 199.667,67.5 201,69.5C 200.594,64.5238 198.427,60.3572 194.5,57C 187.701,51.7604 180.367,47.2604 172.5,43.5C 171.583,44.1272 170.583,44.4606 169.5,44.5C 162.573,41.0809 155.239,39.0809 147.5,38.5 Z"/></g>
<g><path style="opacity:1" fill="#a64742" d="M 142.5,50.5 C 149.409,51.7573 155.409,54.7573 160.5,59.5C 160.5,59.8333 160.5,60.1667 160.5,60.5C 153.725,57.0228 146.725,54.3561 139.5,52.5C 139.973,51.0937 140.973,50.427 142.5,50.5 Z"/></g>
<g><path style="opacity:1" fill="#fce5d5" d="M 130.5,42.5 C 130.938,42.4346 131.272,42.6012 131.5,43C 128.003,44.4107 125.336,46.744 123.5,50C 114.224,55.0349 114.558,55.5349 124.5,51.5C 126.516,51.5159 127.516,52.5159 127.5,54.5C 123.114,55.366 119.614,57.6994 117,61.5C 112.817,66.8665 109.983,72.8665 108.5,79.5C 106.534,84.2421 105.034,89.2421 104,94.5C 103.175,104.675 103.342,114.675 104.5,124.5C 105.417,127.417 106.084,130.417 106.5,133.5C 103.537,131.012 101.37,127.346 100,122.5C 99.6667,124.167 99.3333,125.833 99,127.5C 96.0398,123.007 94.7065,118.007 95,112.5C 94.8303,123.008 94.3303,133.341 93.5,143.5C 91.1168,131.99 89.9501,120.324 90,108.5C 89.9168,123.502 89.9168,138.502 90,153.5C 89.7645,155.119 88.9311,156.119 87.5,156.5C 87.81,153.287 87.4767,150.287 86.5,147.5C 86.6655,143.486 86.4988,139.486 86,135.5C 84.6253,137.937 84.1253,140.603 84.5,143.5C 82.9891,145.476 82.1558,147.809 82,150.5C 81.5045,148.527 81.3379,146.527 81.5,144.5C 82.907,135.854 83.7403,127.188 84,118.5C 82.1847,123.763 80.6847,129.097 79.5,134.5C 78.8333,134.5 78.5,134.167 78.5,133.5C 78.5,132.833 78.5,132.167 78.5,131.5C 79.1667,128.167 79.8333,124.833 80.5,121.5C 83.5301,111.045 86.1967,100.378 88.5,89.5C 90.5848,87.3155 91.5848,84.6489 91.5,81.5C 98.2691,66.4 108.602,54.4 122.5,45.5C 125.007,44.1084 127.673,43.1084 130.5,42.5 Z"/></g>
<g><path style="opacity:1" fill="#fcdccc" d="M 144.5,42.5 C 146.19,42.8564 147.19,43.8564 147.5,45.5C 146.566,46.5676 146.232,47.901 146.5,49.5C 144.901,49.2322 143.568,49.5655 142.5,50.5C 140.973,50.427 139.973,51.0937 139.5,52.5C 138.957,52.56 138.624,52.8933 138.5,53.5C 139.376,54.2508 140.376,54.7508 141.5,55C 139.699,55.3173 139.366,55.984 140.5,57C 139.262,56.9227 138.262,57.0894 137.5,57.5C 137.855,58.5223 138.522,59.189 139.5,59.5C 138.28,64.0984 135.613,65.4317 131.5,63.5C 132.1,62.1001 133.1,61.1001 134.5,60.5C 134.421,59.0695 134.754,57.7362 135.5,56.5C 133.102,54.3787 132.935,52.0454 135,49.5C 137.752,46.5471 140.918,44.2137 144.5,42.5 Z"/></g>
<g><path style="opacity:1" fill="#141d24" d="M 206.5,58.5 C 220.873,58.9245 231.539,65.2578 238.5,77.5C 235.034,78.0769 231.701,79.0769 228.5,80.5C 226.33,79.232 224.163,79.232 222,80.5C 221.623,79.0577 220.79,78.0577 219.5,77.5C 215.557,70.8922 211.224,64.5589 206.5,58.5 Z"/></g>
<g><path style="opacity:1" fill="#eca3a5" d="M 161.5,47.5 C 158.686,45.904 155.686,45.404 152.5,46C 166.679,49.3699 178.012,56.8699 186.5,68.5C 186.833,69.1667 187.167,69.8333 187.5,70.5C 186.244,70.4614 185.244,70.9614 184.5,72C 185.431,76.6698 186.764,81.5032 188.5,86.5C 188.402,88.9368 187.402,90.9368 185.5,92.5C 187.48,95.9315 188.98,99.5982 190,103.5C 190.796,106.039 190.629,108.372 189.5,110.5C 185.236,90.2907 175.569,73.2907 160.5,59.5C 155.409,54.7573 149.409,51.7573 142.5,50.5C 143.568,49.5655 144.901,49.2322 146.5,49.5C 146.232,47.901 146.566,46.5676 147.5,45.5C 150.812,44.9751 153.979,43.9751 157,42.5C 159.67,43.2239 161.17,44.8906 161.5,47.5 Z"/></g>
<g><path style="opacity:1" fill="#e89a9d" d="M 157.5,87.5 C 156.833,87.5 156.5,87.8333 156.5,88.5C 154.434,81.7014 151.267,75.368 147,69.5C 146.667,71.1667 146.333,72.8333 146,74.5C 145.059,72.9386 143.892,71.6053 142.5,70.5C 139.062,73.4869 135.229,74.4869 131,73.5C 130.814,75.9005 130.314,78.2338 129.5,80.5C 128.338,75.8687 128.172,71.202 129,66.5C 129.377,65.0577 130.21,64.0577 131.5,63.5C 135.613,65.4317 138.28,64.0984 139.5,59.5C 139.56,58.9569 139.893,58.6236 140.5,58.5C 141.814,59.3128 142.981,60.3128 144,61.5C 144.309,60.2341 144.809,59.0674 145.5,58C 144.167,57.6667 142.833,57.3333 141.5,57C 147.903,56.0277 153.569,57.6944 158.5,62C 158.705,63.6763 157.872,65.1763 156,66.5C 155.261,65.4258 154.261,64.7591 153,64.5C 151.145,66.0543 149.311,66.721 147.5,66.5C 151.647,73.1269 154.98,80.1269 157.5,87.5 Z"/></g>
<g><path style="opacity:1" fill="#f5b0af" d="M 139.5,52.5 C 146.725,54.3561 153.725,57.0228 160.5,60.5C 169.877,69.421 176.877,79.921 181.5,92C 181.317,93.6836 180.65,93.8502 179.5,92.5C 176.841,87.8709 173.674,83.5376 170,79.5C 169.333,80.5 169.333,81.5 170,82.5C 173.828,84.7607 174.328,87.4274 171.5,90.5C 170.452,88.0673 169.786,88.0673 169.5,90.5C 166.962,90.118 165.129,91.4513 164,94.5C 163.399,92.6412 162.566,92.3079 161.5,93.5C 159.178,92.1979 157.845,90.1979 157.5,87.5C 154.98,80.1269 151.647,73.1269 147.5,66.5C 149.311,66.721 151.145,66.0543 153,64.5C 154.261,64.7591 155.261,65.4258 156,66.5C 157.872,65.1763 158.705,63.6763 158.5,62C 153.569,57.6944 147.903,56.0277 141.5,57C 142.833,57.3333 144.167,57.6667 145.5,58C 144.809,59.0674 144.309,60.2341 144,61.5C 142.981,60.3128 141.814,59.3128 140.5,58.5C 139.893,58.6236 139.56,58.9569 139.5,59.5C 138.522,59.189 137.855,58.5223 137.5,57.5C 138.262,57.0894 139.262,56.9227 140.5,57C 139.366,55.984 139.699,55.3173 141.5,55C 140.376,54.7508 139.376,54.2508 138.5,53.5C 138.624,52.8933 138.957,52.56 139.5,52.5 Z"/></g>
<g><path style="opacity:1" fill="#c85c5b" d="M 127.5,54.5 C 128.091,55.1515 128.757,55.8182 129.5,56.5C 127.096,57.8432 124.762,59.1766 122.5,60.5C 116.909,64.0906 113.242,69.0906 111.5,75.5C 110.559,77.0495 109.893,78.7162 109.5,80.5C 108.833,80.5 108.5,80.1667 108.5,79.5C 109.983,72.8665 112.817,66.8665 117,61.5C 119.614,57.6994 123.114,55.366 127.5,54.5 Z"/></g>
<g><path style="opacity:1" fill="#e08a8d" d="M 161.5,47.5 C 164.807,49.1534 168.14,50.8201 171.5,52.5C 171.348,50.8273 172.015,49.1607 173.5,47.5C 179.377,50.3179 182.71,54.6512 183.5,60.5C 185.075,61.4565 186.742,62.1231 188.5,62.5C 191.218,64.71 193.884,67.21 196.5,70C 195.91,71.2989 194.91,72.1322 193.5,72.5C 190.932,71.4411 188.765,69.7744 187,67.5C 186.601,67.7284 186.435,68.0618 186.5,68.5C 178.012,56.8699 166.679,49.3699 152.5,46C 155.686,45.404 158.686,45.904 161.5,47.5 Z"/></g>
<g><path style="opacity:1" fill="#27343a" d="M 78.5,131.5 C 78.5,132.167 78.5,132.833 78.5,133.5C 75.8032,143.246 76.1366,152.913 79.5,162.5C 78.8895,165.961 80.0561,168.628 83,170.5C 82.6904,176.636 80.5237,182.136 76.5,187C 73.0437,188.123 70.2103,187.29 68,184.5C 67.7783,187.703 69.2783,189.703 72.5,190.5C 75.2787,189.611 77.9454,188.444 80.5,187C 83.4138,183.6 86.0805,180.1 88.5,176.5C 89.1892,183.279 90.5225,189.946 92.5,196.5C 92.5,197.167 92.5,197.833 92.5,198.5C 90.321,198.16 88.4877,197.16 87,195.5C 85.4725,192.583 84.1392,189.583 83,186.5C 82.3954,194.305 85.8954,198.971 93.5,200.5C 93.5,200.833 93.5,201.167 93.5,201.5C 92.2055,203.907 90.5389,206.074 88.5,208C 90.8605,207.202 93.1939,206.035 95.5,204.5C 97.8579,207.236 100.858,208.07 104.5,207C 100.345,205.189 98.345,202.023 98.5,197.5C 98.369,196.761 98.5357,196.094 99,195.5C 101.28,199.059 104.447,200.559 108.5,200C 104.092,199.084 101.092,196.584 99.5,192.5C 101.544,188.174 102.711,183.507 103,178.5C 104.857,185.878 108.024,192.544 112.5,198.5C 112.167,198.5 111.833,198.5 111.5,198.5C 106.115,205.955 102.449,214.289 100.5,223.5C 89.1667,223.5 77.8333,223.5 66.5,223.5C 66.5,182.5 66.5,141.5 66.5,100.5C 67.3319,79.6707 67.8319,58.6707 68,37.5C 68.2492,38.624 68.7492,39.624 69.5,40.5C 70.4255,39.3595 71.2588,39.3595 72,40.5C 73.0437,39.3774 73.7104,38.0441 74,36.5C 74.3333,43.8333 74.6667,51.1667 75,58.5C 75.298,49.8025 75.9646,41.1359 77,32.5C 78.385,65.6792 78.885,98.6792 78.5,131.5 Z"/></g>
<g><path style="opacity:1" fill="#f9bbb9" d="M 122.5,60.5 C 123.675,60.281 124.675,60.6143 125.5,61.5C 122.119,67.023 120.619,73.023 121,79.5C 122.018,73.4441 124.018,67.7774 127,62.5C 124.878,69.4469 125.045,76.4469 127.5,83.5C 127.412,77.7707 127.579,71.7707 128,65.5C 128.609,61.7168 130.776,60.0502 134.5,60.5C 133.1,61.1001 132.1,62.1001 131.5,63.5C 130.21,64.0577 129.377,65.0577 129,66.5C 128.172,71.202 128.338,75.8687 129.5,80.5C 130.314,78.2338 130.814,75.9005 131,73.5C 135.229,74.4869 139.062,73.4869 142.5,70.5C 143.892,71.6053 145.059,72.9386 146,74.5C 146.333,72.8333 146.667,71.1667 147,69.5C 151.267,75.368 154.434,81.7014 156.5,88.5C 157.219,90.7638 157.552,93.0971 157.5,95.5C 157.5,96.5 157.5,97.5 157.5,98.5C 156.178,98.33 155.011,98.6634 154,99.5C 153.667,101.5 153.333,103.5 153,105.5C 152.667,105.167 152.333,104.833 152,104.5C 151.284,96.6187 149.618,88.9521 147,81.5C 147.731,88.2901 148.564,95.1234 149.5,102C 149.11,107.721 147.943,107.887 146,102.5C 145.145,105.601 143.645,108.268 141.5,110.5C 137.805,108.252 134.971,105.252 133,101.5C 133.127,104.383 133.793,107.05 135,109.5C 133.984,108.366 133.317,108.699 133,110.5C 130.763,109.944 128.763,108.944 127,107.5C 126.65,110.38 125.817,113.047 124.5,115.5C 124.44,116.043 124.107,116.376 123.5,116.5C 122.486,110.742 121.152,105.075 119.5,99.5C 118.614,100.325 118.281,101.325 118.5,102.5C 116.871,104.06 115.704,103.727 115,101.5C 113.956,102.623 113.29,103.956 113,105.5C 112.784,103.616 112.117,101.949 111,100.5C 108.879,106.652 107.546,112.985 107,119.5C 106.617,118.944 106.117,118.611 105.5,118.5C 105.5,116.833 105.5,115.167 105.5,113.5C 105.5,112.167 105.5,110.833 105.5,109.5C 106.271,103.24 107.438,96.9065 109,90.5C 109.333,90.1667 109.667,89.8333 110,89.5C 110.92,91.6317 112.087,93.6317 113.5,95.5C 114.167,95.1667 114.833,94.8333 115.5,94.5C 116.308,96.4233 116.808,98.4233 117,100.5C 118.393,95.9053 118.726,91.2387 118,86.5C 116.667,89.1667 115.333,89.1667 114,86.5C 112.986,82.7595 112.153,79.0928 111.5,75.5C 113.242,69.0906 116.909,64.0906 122.5,60.5 Z"/></g>
<g><path style="opacity:1" fill="#eb9a99" d="M 142.5,39.5 C 141.697,40.4232 141.53,41.4232 142,42.5C 142.977,41.2264 143.811,41.2264 144.5,42.5C 140.918,44.2137 137.752,46.5471 135,49.5C 132.935,52.0454 133.102,54.3787 135.5,56.5C 134.754,57.7362 134.421,59.0695 134.5,60.5C 130.776,60.0502 128.609,61.7168 128,65.5C 127.579,71.7707 127.412,77.7707 127.5,83.5C 125.045,76.4469 124.878,69.4469 127,62.5C 124.018,67.7774 122.018,73.4441 121,79.5C 120.619,73.023 122.119,67.023 125.5,61.5C 124.675,60.6143 123.675,60.281 122.5,60.5C 124.762,59.1766 127.096,57.8432 129.5,56.5C 128.757,55.8182 128.091,55.1515 127.5,54.5C 127.516,52.5159 126.516,51.5159 124.5,51.5C 114.558,55.5349 114.224,55.0349 123.5,50C 125.336,46.744 128.003,44.4107 131.5,43C 131.272,42.6012 130.938,42.4346 130.5,42.5C 134.298,41.1316 138.298,40.1316 142.5,39.5 Z"/></g>
<g><path style="opacity:1" fill="#602c2f" d="M 239.5,77.5 C 241.389,76.2584 243.389,76.2584 245.5,77.5C 245.027,78.9063 244.027,79.573 242.5,79.5C 241.5,80.1667 240.5,80.8333 239.5,81.5C 238.957,81.44 238.624,81.1067 238.5,80.5C 239.5,79.6667 240.5,78.8333 241.5,78C 240.906,77.5357 240.239,77.369 239.5,77.5 Z"/></g>
<g><path style="opacity:1" fill="#df8588" d="M 193.5,75.5 C 201.331,74.5934 206.331,78.26 208.5,86.5C 205.423,87.7988 202.423,87.6322 199.5,86C 197.204,82.5694 195.204,79.0694 193.5,75.5 Z"/></g>
<g><path style="opacity:1" fill="#f0ada8" d="M 108.5,79.5 C 108.5,80.1667 108.833,80.5 109.5,80.5C 105.987,89.8124 104.654,99.4791 105.5,109.5C 105.5,110.833 105.5,112.167 105.5,113.5C 104.518,116.962 104.185,120.629 104.5,124.5C 103.342,114.675 103.175,104.675 104,94.5C 105.034,89.2421 106.534,84.2421 108.5,79.5 Z"/></g>
<g><path style="opacity:1" fill="#fee7d9" d="M 111.5,75.5 C 112.153,79.0928 112.986,82.7595 114,86.5C 115.333,89.1667 116.667,89.1667 118,86.5C 118.726,91.2387 118.393,95.9053 117,100.5C 116.808,98.4233 116.308,96.4233 115.5,94.5C 114.833,94.8333 114.167,95.1667 113.5,95.5C 112.087,93.6317 110.92,91.6317 110,89.5C 109.667,89.8333 109.333,90.1667 109,90.5C 107.438,96.9065 106.271,103.24 105.5,109.5C 104.654,99.4791 105.987,89.8124 109.5,80.5C 109.893,78.7162 110.559,77.0495 111.5,75.5 Z"/></g>
<g><path style="opacity:1" fill="#c0666b" d="M 160.5,59.5 C 175.569,73.2907 185.236,90.2907 189.5,110.5C 189.5,111.167 189.5,111.833 189.5,112.5C 188.167,111.833 187.167,110.833 186.5,109.5C 183.713,104.017 181.38,98.3501 179.5,92.5C 180.65,93.8502 181.317,93.6836 181.5,92C 176.877,79.921 169.877,69.421 160.5,60.5C 160.5,60.1667 160.5,59.8333 160.5,59.5 Z"/></g>
<g><path style="opacity:1" fill="#bb686b" d="M 258.5,74.5 C 258.5,75.5 258.5,76.5 258.5,77.5C 257.448,77.3505 256.448,77.5172 255.5,78C 252.696,81.145 250.03,84.3117 247.5,87.5C 246.596,88.209 246.263,89.209 246.5,90.5C 244.06,93.7202 242.393,97.3869 241.5,101.5C 240.167,102.5 238.833,103.5 237.5,104.5C 236.503,104.53 235.836,104.03 235.5,103C 237.478,100.853 238.811,98.3526 239.5,95.5C 240.956,92.7533 242.289,89.92 243.5,87C 242.987,85.2477 242.987,83.7477 243.5,82.5C 243.672,81.5084 243.338,80.8417 242.5,80.5C 242.5,80.1667 242.5,79.8333 242.5,79.5C 244.027,79.573 245.027,78.9063 245.5,77.5C 249.798,76.7512 254.131,75.7512 258.5,74.5 Z"/></g>
<g><path style="opacity:0.933" fill="#fafafa" d="M 313.5,82.5 C 320.301,82.9038 326.968,84.0705 333.5,86C 337.031,87.5293 339.031,90.196 339.5,94C 339.102,100.789 336.769,106.789 332.5,112C 334.659,112.912 336.825,113.745 339,114.5C 339.667,126.5 339.667,138.5 339,150.5C 335.121,153.686 330.621,155.52 325.5,156C 292.739,158.569 278.239,143.402 282,110.5C 285.846,93.4782 296.346,84.1449 313.5,82.5 Z"/></g>
<g><path style="opacity:0.938" fill="#fafafa" d="M 478.5,82.5 C 488.193,82.2303 496.693,85.2303 504,91.5C 504.427,87.4729 506.594,84.9729 510.5,84C 524.167,83.3333 537.833,83.3333 551.5,84C 554,85.1667 555.833,87 557,89.5C 557.667,94.8333 557.667,100.167 557,105.5C 554.989,110.757 551.156,112.757 545.5,111.5C 545.667,124.837 545.5,138.171 545,151.5C 541.107,155.146 536.44,156.812 531,156.5C 525.52,156.806 520.853,155.14 517,151.5C 516.5,138.171 516.333,124.837 516.5,111.5C 515.5,111.5 514.5,111.5 513.5,111.5C 514.852,122.772 513.018,133.438 508,143.5C 498.852,154.76 487.018,158.927 472.5,156C 462.742,153.743 455.408,148.243 450.5,139.5C 446.717,146.57 441.05,151.57 433.5,154.5C 436.991,156.483 438.658,159.483 438.5,163.5C 443.018,162.333 447.351,162.999 451.5,165.5C 463.579,160.081 470.579,163.915 472.5,177C 474.202,192.144 467.869,197.644 453.5,193.5C 445.642,193.593 437.642,194.259 429.5,195.5C 427.194,200.24 423.361,202.574 418,202.5C 411.656,203.261 408.156,200.594 407.5,194.5C 399.141,194.595 390.808,194.762 382.5,195C 378.501,194.332 375.668,192.165 374,188.5C 369.276,195.351 363.109,197.017 355.5,193.5C 348.597,193.694 341.764,193.694 335,193.5C 328.896,194.276 322.73,194.942 316.5,195.5C 313.724,195.195 311.224,194.195 309,192.5C 298.937,197.811 291.27,195.478 286,185.5C 285.333,178.833 285.333,172.167 286,165.5C 290.759,156.581 297.926,154.081 307.5,158C 309.709,159.873 311.542,162.04 313,164.5C 316.785,161.956 320.618,161.956 324.5,164.5C 331.75,163.191 338.917,162.524 346,162.5C 348.684,163.068 351.184,164.068 353.5,165.5C 361.299,161.326 367.965,162.66 373.5,169.5C 378.411,163.441 384.411,161.775 391.5,164.5C 398.088,162.195 404.422,162.528 410.5,165.5C 414.521,162.649 418.855,161.982 423.5,163.5C 423.22,160.728 423.887,158.228 425.5,156C 417.5,155.667 409.5,155.333 401.5,155C 399.333,154.167 397.833,152.667 397,150.5C 396.023,129.411 396.357,108.411 398,87.5C 399.319,85.5125 401.152,84.3459 403.5,84C 412.886,83.1473 422.219,83.4806 431.5,85C 440.401,87.2431 446.901,92.4097 451,100.5C 456.807,89.3478 465.973,83.3478 478.5,82.5 Z M 479.5,112.5 C 480.675,112.281 481.675,112.614 482.5,113.5C 483.593,117.108 483.76,120.775 483,124.5C 481.333,128.5 479.667,128.5 478,124.5C 476.994,120.198 477.494,116.198 479.5,112.5 Z"/></g>
<g><path style="opacity:1" fill="#fddfcf" d="M 162.5,78.5 C 166.225,82.1409 166.225,85.8076 162.5,89.5C 157.917,86.7909 157.751,84.1243 162,81.5C 162.483,80.552 162.649,79.552 162.5,78.5 Z"/></g>
<g><path style="opacity:1" fill="#e4b18a" d="M 242.5,79.5 C 242.5,79.8333 242.5,80.1667 242.5,80.5C 239.934,83.2889 237.6,86.2889 235.5,89.5C 235.167,89.1667 234.833,88.8333 234.5,88.5C 235.804,85.8699 237.47,83.5366 239.5,81.5C 240.5,80.8333 241.5,80.1667 242.5,79.5 Z"/></g>
<g><path style="opacity:0.996" fill="#c99579" d="M 91.5,81.5 C 91.5848,84.6489 90.5848,87.3155 88.5,89.5C 88.6197,86.4221 89.6197,83.7554 91.5,81.5 Z"/></g>
<g><path style="opacity:1" fill="#dfa785" d="M 258.5,77.5 C 258.5,91.1667 258.5,104.833 258.5,118.5C 255.968,114.789 252.968,111.456 249.5,108.5C 248.743,102.636 250.076,97.3029 253.5,92.5C 253.333,92.1667 253.167,91.8333 253,91.5C 251.959,93.5852 250.459,95.2519 248.5,96.5C 247.516,93.5719 247.183,90.5719 247.5,87.5C 250.03,84.3117 252.696,81.145 255.5,78C 256.448,77.5172 257.448,77.3505 258.5,77.5 Z"/></g>
<g><path style="opacity:1" fill="#fdece2" d="M 124.5,87.5 C 126.504,88.6728 128.004,90.3395 129,92.5C 129.333,91.8333 129.667,91.1667 130,90.5C 133.073,91.6168 136.24,91.7835 139.5,91C 141.217,89.4412 143.217,88.6079 145.5,88.5C 146.205,91.2443 146.205,93.911 145.5,96.5C 144.749,95.624 144.249,94.624 144,93.5C 143.043,96.022 141.543,98.1886 139.5,100C 137.893,99.9813 136.226,99.8146 134.5,99.5C 134.357,96.9026 133.523,94.5692 132,92.5C 131.463,95.1872 131.963,97.6872 133.5,100C 132.517,100.591 131.85,100.257 131.5,99C 130.922,97.1886 130.422,95.3553 130,93.5C 129.51,94.7932 129.343,96.1266 129.5,97.5C 127.856,97.7135 126.356,97.3802 125,96.5C 124.502,93.5184 124.335,90.5184 124.5,87.5 Z"/></g>
<g><path style="opacity:1" fill="#954950" d="M 238.5,77.5 C 238.833,77.5 239.167,77.5 239.5,77.5C 240.239,77.369 240.906,77.5357 241.5,78C 240.5,78.8333 239.5,79.6667 238.5,80.5C 238.624,81.1067 238.957,81.44 239.5,81.5C 237.47,83.5366 235.804,85.8699 234.5,88.5C 234.833,88.8333 235.167,89.1667 235.5,89.5C 237.6,86.2889 239.934,83.2889 242.5,80.5C 243.338,80.8417 243.672,81.5084 243.5,82.5C 241.533,84.3039 239.699,86.3039 238,88.5C 238.006,90.2985 238.339,91.9652 239,93.5C 237.008,94.3281 235.508,95.6614 234.5,97.5C 232.25,97.8186 230.25,97.3186 228.5,96C 229.357,95.3109 230.023,94.4776 230.5,93.5C 229.282,93.891 228.448,93.2244 228,91.5C 227.333,92.1667 226.667,92.8333 226,93.5C 225.333,89.8333 225.333,86.1667 226,82.5C 226.995,81.9341 227.828,81.2674 228.5,80.5C 231.701,79.0769 235.034,78.0769 238.5,77.5 Z"/></g>
<g><path style="opacity:1" fill="#434244" d="M 307.5,89.5 C 315.738,88.8463 323.738,89.8463 331.5,92.5C 332.912,97.7811 331.912,102.614 328.5,107C 323.289,105.869 317.956,105.536 312.5,106C 309.667,107.5 307.5,109.667 306,112.5C 304.89,118.426 305.556,124.092 308,129.5C 311.387,133.039 315.553,134.372 320.5,133.5C 320.5,131.5 320.5,129.5 320.5,127.5C 318.833,127.5 317.167,127.5 315.5,127.5C 315.5,124.5 315.5,121.5 315.5,118.5C 321.425,118.192 327.259,118.525 333,119.5C 333.5,128.827 333.666,138.161 333.5,147.5C 298.914,156.079 284.081,142.746 289,107.5C 292.441,98.5567 298.608,92.5567 307.5,89.5 Z"/></g>
<g><path style="opacity:1" fill="#434244" d="M 472.5,89.5 C 498.938,87.7736 510.438,100.107 507,126.5C 502.637,146.278 490.47,153.778 470.5,149C 457.936,142.38 452.269,131.88 453.5,117.5C 453.56,103.794 459.893,94.4608 472.5,89.5 Z M 479.5,112.5 C 477.494,116.198 476.994,120.198 478,124.5C 479.667,128.5 481.333,128.5 483,124.5C 483.76,120.775 483.593,117.108 482.5,113.5C 481.675,112.614 480.675,112.281 479.5,112.5 Z"/></g>
<g><path style="opacity:1" fill="#424143" d="M 403.5,90.5 C 442.688,85.8549 455.855,102.188 443,139.5C 438.533,145.151 432.699,148.317 425.5,149C 417.92,149.813 410.42,149.647 403,148.5C 402.18,129.093 402.347,109.76 403.5,90.5 Z"/></g>
<g><path style="opacity:1" fill="#424143" d="M 511.5,90.5 C 524.504,90.3334 537.504,90.5001 550.5,91C 551.811,95.4692 551.811,99.9692 550.5,104.5C 546.893,105.489 543.226,105.823 539.5,105.5C 539.667,119.837 539.5,134.171 539,148.5C 533.667,149.833 528.333,149.833 523,148.5C 522.5,134.171 522.333,119.837 522.5,105.5C 518.563,105.793 514.73,105.46 511,104.5C 510.227,99.7481 510.393,95.0815 511.5,90.5 Z"/></g>
<g><path style="opacity:1" fill="#662c2a" d="M 157.5,87.5 C 157.845,90.1979 159.178,92.1979 161.5,93.5C 161.5,94.1667 161.5,94.8333 161.5,95.5C 160.883,95.3893 160.383,95.056 160,94.5C 159.506,96.1341 159.34,97.8008 159.5,99.5C 158.833,98.1667 158.167,96.8333 157.5,95.5C 157.552,93.0971 157.219,90.7638 156.5,88.5C 156.5,87.8333 156.833,87.5 157.5,87.5 Z"/></g>
<g><path style="opacity:1" fill="#cc787f" d="M 190.5,74.5 C 193.686,78.8731 196.353,83.5398 198.5,88.5C 201.945,97.5075 203.945,106.841 204.5,116.5C 203.698,115.048 203.198,113.382 203,111.5C 202.581,124.511 200.248,137.178 196,149.5C 195.667,145.833 195.333,142.167 195,138.5C 194.501,143.489 194.334,148.489 194.5,153.5C 194.672,154.492 194.338,155.158 193.5,155.5C 193.5,155.167 193.5,154.833 193.5,154.5C 193.821,149.305 193.487,144.305 192.5,139.5C 193.341,137.621 193.675,135.621 193.5,133.5C 194.5,133.5 195.5,133.5 196.5,133.5C 197.005,130.159 197.172,126.826 197,123.5C 195.057,130.965 194.057,130.298 194,121.5C 193.768,122.737 193.268,123.737 192.5,124.5C 192.5,123.167 192.5,121.833 192.5,120.5C 193.5,120.5 194.5,120.5 195.5,120.5C 195.5,119.5 195.5,118.5 195.5,117.5C 197.846,102.664 196.179,88.331 190.5,74.5 Z"/></g>
<g><path style="opacity:1" fill="#e69495" d="M 169.5,90.5 C 171.763,94.6255 173.43,98.9588 174.5,103.5C 175.19,107.49 175.357,111.49 175,115.5C 173.568,111.623 171.402,108.289 168.5,105.5C 166.938,101.608 164.605,98.2749 161.5,95.5C 161.5,94.8333 161.5,94.1667 161.5,93.5C 162.566,92.3079 163.399,92.6412 164,94.5C 165.129,91.4513 166.962,90.118 169.5,90.5 Z"/></g>
<g><path style="opacity:1" fill="#da8285" d="M 179.5,92.5 C 181.38,98.3501 183.713,104.017 186.5,109.5C 185.078,108.075 183.411,107.075 181.5,106.5C 179.261,103.047 176.761,99.714 174,96.5C 173.427,94.3594 172.594,92.3594 171.5,90.5C 174.328,87.4274 173.828,84.7607 170,82.5C 169.333,81.5 169.333,80.5 170,79.5C 173.674,83.5376 176.841,87.8709 179.5,92.5 Z"/></g>
<g><path style="opacity:1" fill="#bb7e61" d="M 243.5,82.5 C 242.987,83.7477 242.987,85.2477 243.5,87C 242.289,89.92 240.956,92.7533 239.5,95.5C 238.5,95.8333 237.833,96.5 237.5,97.5C 236.5,97.5 235.5,97.5 234.5,97.5C 235.508,95.6614 237.008,94.3281 239,93.5C 238.339,91.9652 238.006,90.2985 238,88.5C 239.699,86.3039 241.533,84.3039 243.5,82.5 Z"/></g>
<g><path style="opacity:1" fill="#904e55" d="M 246.5,90.5 C 245.808,94.8905 244.808,99.2238 243.5,103.5C 243.757,111.306 241.757,118.472 237.5,125C 236.207,125.49 234.873,125.657 233.5,125.5C 232.89,124.609 232.557,123.609 232.5,122.5C 234.611,123.968 236.444,123.635 238,121.5C 240.105,116.291 241.439,110.958 242,105.5C 240.627,108.412 239.127,111.246 237.5,114C 234.389,114.612 231.723,113.779 229.5,111.5C 229.5,110.833 229.5,110.167 229.5,109.5C 230.627,110.122 231.627,110.955 232.5,112C 233.833,112.667 235.167,112.667 236.5,112C 239.115,108.938 240.781,105.438 241.5,101.5C 242.393,97.3869 244.06,93.7202 246.5,90.5 Z"/></g>
<g><path style="opacity:1" fill="#94513b" d="M 247.5,87.5 C 247.183,90.5719 247.516,93.5719 248.5,96.5C 250.459,95.2519 251.959,93.5852 253,91.5C 253.167,91.8333 253.333,92.1667 253.5,92.5C 250.076,97.3029 248.743,102.636 249.5,108.5C 249.5,109.167 249.167,109.5 248.5,109.5C 248.5,107.833 248.5,106.167 248.5,104.5C 246.708,104.634 245.042,104.301 243.5,103.5C 244.808,99.2238 245.808,94.8905 246.5,90.5C 246.263,89.209 246.596,88.209 247.5,87.5 Z"/></g>
<g><path style="opacity:1" fill="#905844" d="M 161.5,95.5 C 164.605,98.2749 166.938,101.608 168.5,105.5C 167.395,104.4 166.062,103.733 164.5,103.5C 162.694,104.024 161.028,104.691 159.5,105.5C 158.102,107.109 156.435,107.942 154.5,108C 157.712,105.981 159.378,103.147 159.5,99.5C 159.34,97.8008 159.506,96.1341 160,94.5C 160.383,95.056 160.883,95.3893 161.5,95.5 Z"/></g>
<g><path style="opacity:1" fill="#8f4e4f" d="M 171.5,90.5 C 172.594,92.3594 173.427,94.3594 174,96.5C 176.761,99.714 179.261,103.047 181.5,106.5C 179.519,104.856 177.519,103.19 175.5,101.5C 174.702,101.957 174.369,102.624 174.5,103.5C 173.43,98.9588 171.763,94.6255 169.5,90.5C 169.786,88.0673 170.452,88.0673 171.5,90.5 Z"/></g>
<g><path style="opacity:1" fill="#e29093" d="M 187.5,70.5 C 188.974,71.4363 189.974,72.7697 190.5,74.5C 196.179,88.331 197.846,102.664 195.5,117.5C 193.833,117.5 192.167,117.5 190.5,117.5C 190.5,117.167 190.5,116.833 190.5,116.5C 190.167,115.167 189.833,113.833 189.5,112.5C 189.5,111.833 189.5,111.167 189.5,110.5C 190.629,108.372 190.796,106.039 190,103.5C 188.98,99.5982 187.48,95.9315 185.5,92.5C 187.402,90.9368 188.402,88.9368 188.5,86.5C 186.764,81.5032 185.431,76.6698 184.5,72C 185.244,70.9614 186.244,70.4614 187.5,70.5 Z"/></g>
<g><path style="opacity:1" fill="#1a1c22" d="M 241.5,101.5 C 240.781,105.438 239.115,108.938 236.5,112C 235.167,112.667 233.833,112.667 232.5,112C 231.627,110.955 230.627,110.122 229.5,109.5C 229.167,108.833 228.833,108.167 228.5,107.5C 232.155,108.075 235.155,107.075 237.5,104.5C 238.833,103.5 240.167,102.5 241.5,101.5 Z"/></g>
<g><path style="opacity:1" fill="#9e4851" d="M 239.5,95.5 C 238.811,98.3526 237.478,100.853 235.5,103C 235.836,104.03 236.503,104.53 237.5,104.5C 235.155,107.075 232.155,108.075 228.5,107.5C 227.391,107.443 226.391,107.11 225.5,106.5C 220.015,102.593 220.348,101.76 226.5,104C 223.801,101.457 223.801,100.79 226.5,102C 231.093,102.702 234.759,101.202 237.5,97.5C 237.833,96.5 238.5,95.8333 239.5,95.5 Z"/></g>
<g><path style="opacity:1" fill="#b76d53" d="M 164.5,103.5 C 164.173,108.214 164.507,112.88 165.5,117.5C 166.451,116.674 167.451,116.508 168.5,117C 165.96,119.205 163.793,121.705 162,124.5C 161.583,123.244 160.75,122.577 159.5,122.5C 159.5,116.833 159.5,111.167 159.5,105.5C 161.028,104.691 162.694,104.024 164.5,103.5 Z"/></g>
<g><path style="opacity:1" fill="#fbfbfb" d="M 418.5,106.5 C 427.234,106.072 430.9,110.239 429.5,119C 429.764,123.406 428.931,127.573 427,131.5C 424.695,133.93 421.862,134.93 418.5,134.5C 418.5,125.167 418.5,115.833 418.5,106.5 Z"/></g>
<g><path style="opacity:0.93" fill="#f6f6f6" d="M 477.5,105.5 C 484.313,104.812 488.48,107.812 490,114.5C 491.381,121.686 489.547,127.852 484.5,133C 476.764,134.614 472.264,131.447 471,123.5C 469.731,116.13 471.898,110.13 477.5,105.5 Z M 479.5,112.5 C 477.494,116.198 476.994,120.198 478,124.5C 479.667,128.5 481.333,128.5 483,124.5C 483.76,120.775 483.593,117.108 482.5,113.5C 481.675,112.614 480.675,112.281 479.5,112.5 Z"/></g>
<g><path style="opacity:1" fill="#482625" d="M 225.5,106.5 C 226.391,107.11 227.391,107.443 228.5,107.5C 228.833,108.167 229.167,108.833 229.5,109.5C 229.5,110.167 229.5,110.833 229.5,111.5C 229.624,115.412 230.624,119.079 232.5,122.5C 232.557,123.609 232.89,124.609 233.5,125.5C 233.167,125.5 232.833,125.5 232.5,125.5C 229.674,119.767 227.341,113.767 225.5,107.5C 225.5,107.167 225.5,106.833 225.5,106.5 Z"/></g>
<g><path style="opacity:1" fill="#d07879" d="M 213.5,100.5 C 214.469,101.309 215.302,102.309 216,103.5C 216.719,107.145 217.219,110.812 217.5,114.5C 217.666,124.172 217.5,133.839 217,143.5C 217.131,136.754 216.298,130.421 214.5,124.5C 213.662,124.158 213.328,123.492 213.5,122.5C 212.123,115.22 211.123,107.887 210.5,100.5C 211.425,99.4376 212.425,99.4376 213.5,100.5 Z"/></g>
<g><path style="opacity:1" fill="#a4614e" d="M 181.5,106.5 C 183.411,107.075 185.078,108.075 186.5,109.5C 187.167,110.833 188.167,111.833 189.5,112.5C 189.833,113.833 190.167,115.167 190.5,116.5C 190.167,116.5 189.833,116.5 189.5,116.5C 188.209,116.737 187.209,116.404 186.5,115.5C 187.239,115.631 187.906,115.464 188.5,115C 186.309,112.476 183.809,110.309 181,108.5C 179.941,108.63 179.108,109.13 178.5,110C 180.181,112.821 182.515,114.654 185.5,115.5C 183.473,115.338 181.473,115.505 179.5,116C 178.845,117.487 177.845,118.653 176.5,119.5C 176.167,118.833 175.833,118.167 175.5,117.5C 171.163,120.174 167.496,123.507 164.5,127.5C 163.671,126.668 162.838,127.001 162,128.5C 161.333,127.833 161.333,127.167 162,126.5C 165.39,122.607 169.223,119.273 173.5,116.5C 172.079,112.662 170.412,108.995 168.5,105.5C 171.402,108.289 173.568,111.623 175,115.5C 175.357,111.49 175.19,107.49 174.5,103.5C 174.369,102.624 174.702,101.957 175.5,101.5C 177.519,103.19 179.519,104.856 181.5,106.5 Z"/></g>
<g><path style="opacity:1" fill="#e1a583" d="M 186.5,115.5 C 186.167,115.5 185.833,115.5 185.5,115.5C 182.515,114.654 180.181,112.821 178.5,110C 179.108,109.13 179.941,108.63 181,108.5C 183.809,110.309 186.309,112.476 188.5,115C 187.906,115.464 187.239,115.631 186.5,115.5 Z"/></g>
<g><path style="opacity:1" fill="#a7604c" d="M 124.5,115.5 C 126.144,115.286 127.644,115.62 129,116.5C 131.317,122.468 134.15,128.134 137.5,133.5C 137.265,134.097 136.765,134.43 136,134.5C 132.503,133.684 129.336,132.35 126.5,130.5C 125.623,127.699 124.456,125.032 123,122.5C 122.501,126.486 122.334,130.486 122.5,134.5C 121.833,134.5 121.167,134.5 120.5,134.5C 119.593,129.484 118.593,124.484 117.5,119.5C 117.532,113.811 117.866,108.145 118.5,102.5C 118.281,101.325 118.614,100.325 119.5,99.5C 121.152,105.075 122.486,110.742 123.5,116.5C 124.107,116.376 124.44,116.043 124.5,115.5 Z"/></g>
<g><path style="opacity:1" fill="#7a373d" d="M 219.5,77.5 C 220.79,78.0577 221.623,79.0577 222,80.5C 224.163,79.232 226.33,79.232 228.5,80.5C 227.828,81.2674 226.995,81.9341 226,82.5C 225.333,86.1667 225.333,89.8333 226,93.5C 226.667,92.8333 227.333,92.1667 228,91.5C 228.448,93.2244 229.282,93.891 230.5,93.5C 230.023,94.4776 229.357,95.3109 228.5,96C 230.25,97.3186 232.25,97.8186 234.5,97.5C 235.5,97.5 236.5,97.5 237.5,97.5C 234.759,101.202 231.093,102.702 226.5,102C 223.801,100.79 223.801,101.457 226.5,104C 220.348,101.76 220.015,102.593 225.5,106.5C 225.5,106.833 225.5,107.167 225.5,107.5C 224.957,107.56 224.624,107.893 224.5,108.5C 225.654,111.102 226.154,113.768 226,116.5C 224.697,110.553 221.864,105.553 217.5,101.5C 216.311,100.571 214.978,100.238 213.5,100.5C 212.425,99.4376 211.425,99.4376 210.5,100.5C 211.123,107.887 212.123,115.22 213.5,122.5C 212.5,121.833 211.5,121.167 210.5,120.5C 208.641,117.981 206.641,117.981 204.5,120.5C 204.5,119.167 204.5,117.833 204.5,116.5C 203.945,106.841 201.945,97.5075 198.5,88.5C 198.435,88.0618 198.601,87.7284 199,87.5C 201.803,91.0698 205.303,92.2365 209.5,91C 207.403,92.6104 205.07,93.7771 202.5,94.5C 204.088,97.2571 206.421,98.0904 209.5,97C 211.569,95.4766 213.903,94.6432 216.5,94.5C 216.987,95.4734 217.487,96.4734 218,97.5C 218.417,96.244 219.25,95.5774 220.5,95.5C 222.875,99.6303 224.042,99.297 224,94.5C 221.264,92.9707 221.098,91.4707 223.5,90C 222.667,89.1667 221.833,88.3333 221,87.5C 220.34,89.3237 219.173,90.657 217.5,91.5C 214.532,84.6337 211.865,77.4671 209.5,70C 209.667,69.5 209.833,69 210,68.5C 212.727,74.0166 215.06,79.6832 217,85.5C 217.207,81.4877 216.373,77.6544 214.5,74C 214.667,73.5 214.833,73 215,72.5C 216.528,75.4167 217.861,78.4167 219,81.5C 219.49,80.2068 219.657,78.8734 219.5,77.5 Z"/></g>
<g><path style="opacity:1" fill="#d5ae5c" d="M 217.5,92.5 C 218.833,93.1667 219.833,94.1667 220.5,95.5C 219.25,95.5774 218.417,96.244 218,97.5C 217.487,96.4734 216.987,95.4734 216.5,94.5C 217.338,94.1583 217.672,93.4916 217.5,92.5 Z"/></g>
<g><path style="opacity:1" fill="#43211c" d="M 220.5,95.5 C 219.833,94.1667 218.833,93.1667 217.5,92.5C 217.5,92.1667 217.5,91.8333 217.5,91.5C 219.173,90.657 220.34,89.3237 221,87.5C 221.833,88.3333 222.667,89.1667 223.5,90C 221.098,91.4707 221.264,92.9707 224,94.5C 224.042,99.297 222.875,99.6303 220.5,95.5 Z"/></g>
<g><path style="opacity:1" fill="#ae6f54" d="M 249.5,108.5 C 252.968,111.456 255.968,114.789 258.5,118.5C 258.5,119.167 258.5,119.833 258.5,120.5C 257.711,120.783 257.044,121.283 256.5,122C 257.382,125.778 257.715,129.445 257.5,133C 256.692,133.308 256.025,133.808 255.5,134.5C 257.276,135.315 257.943,136.482 257.5,138C 256.386,139.57 255.053,140.903 253.5,142C 256.096,143.797 255.763,145.131 252.5,146C 252.665,147.117 252.998,148.284 253.5,149.5C 251.032,154.13 248.366,158.63 245.5,163C 245.833,163.333 246.167,163.667 246.5,164C 240.234,170.537 234.734,177.037 230,183.5C 228.927,182.72 227.76,182.887 226.5,184C 227.386,185.217 228.386,186.551 229.5,188C 228.748,188.671 228.414,189.504 228.5,190.5C 226.401,190.972 224.401,190.972 222.5,190.5C 221.416,189.335 220.583,188.002 220,186.5C 219.667,186.833 219.333,187.167 219,187.5C 218.776,180.73 220.276,174.396 223.5,168.5C 224.11,167.609 224.443,166.609 224.5,165.5C 227.194,162.124 229.527,158.457 231.5,154.5C 233.625,151.912 234.958,148.912 235.5,145.5C 241.793,134.293 246.127,122.293 248.5,109.5C 249.167,109.5 249.5,109.167 249.5,108.5 Z"/></g>
<g><path style="opacity:1" fill="#172129" d="M 232.5,122.5 C 230.624,119.079 229.624,115.412 229.5,111.5C 231.723,113.779 234.389,114.612 237.5,114C 239.127,111.246 240.627,108.412 242,105.5C 241.439,110.958 240.105,116.291 238,121.5C 236.444,123.635 234.611,123.968 232.5,122.5 Z"/></g>
<g><path style="opacity:1" fill="#ec9fa0" d="M 118.5,102.5 C 117.866,108.145 117.532,113.811 117.5,119.5C 116.542,119.953 115.708,120.619 115,121.5C 115.145,118.077 113.645,116.077 110.5,115.5C 110.658,118.361 109.992,121.028 108.5,123.5C 108.852,124.786 109.518,125.619 110.5,126C 110.138,127.225 109.638,128.391 109,129.5C 107.146,126.081 105.98,122.414 105.5,118.5C 106.117,118.611 106.617,118.944 107,119.5C 107.546,112.985 108.879,106.652 111,100.5C 112.117,101.949 112.784,103.616 113,105.5C 113.29,103.956 113.956,102.623 115,101.5C 115.704,103.727 116.871,104.06 118.5,102.5 Z"/></g>
<g><path style="opacity:1" fill="#291815" d="M 185.5,115.5 C 185.833,115.5 186.167,115.5 186.5,115.5C 187.209,116.404 188.209,116.737 189.5,116.5C 188.738,118.262 187.404,119.262 185.5,119.5C 184.448,119.351 183.448,119.517 182.5,120C 186.305,123.192 187.305,127.025 185.5,131.5C 184.566,130.432 184.232,129.099 184.5,127.5C 183.688,124.725 182.021,122.558 179.5,121C 177.465,120.401 175.799,120.901 174.5,122.5C 173.094,122.973 172.427,123.973 172.5,125.5C 172.591,127.698 171.925,128.031 170.5,126.5C 170.649,125.448 170.483,124.448 170,123.5C 167.957,125.208 166.29,127.208 165,129.5C 164.536,128.906 164.369,128.239 164.5,127.5C 167.496,123.507 171.163,120.174 175.5,117.5C 175.833,118.167 176.167,118.833 176.5,119.5C 177.845,118.653 178.845,117.487 179.5,116C 181.473,115.505 183.473,115.338 185.5,115.5 Z"/></g>
<g><path style="opacity:1" fill="#e49293" d="M 157.5,95.5 C 158.167,96.8333 158.833,98.1667 159.5,99.5C 159.378,103.147 157.712,105.981 154.5,108C 156.435,107.942 158.102,107.109 159.5,105.5C 159.5,111.167 159.5,116.833 159.5,122.5C 159.5,123.5 159.5,124.5 159.5,125.5C 158.542,125.047 157.708,124.381 157,123.5C 156.77,119.71 155.437,116.376 153,113.5C 152.829,118.533 152.329,123.533 151.5,128.5C 150.522,128.023 149.689,127.357 149,126.5C 148.833,127.333 148.667,128.167 148.5,129C 150.735,134.395 149.402,135.729 144.5,133C 141.97,130.273 139.637,128.107 137.5,126.5C 138.404,129.979 140.071,132.979 142.5,135.5C 140.486,135.608 138.82,134.942 137.5,133.5C 134.15,128.134 131.317,122.468 129,116.5C 127.644,115.62 126.144,115.286 124.5,115.5C 125.817,113.047 126.65,110.38 127,107.5C 128.763,108.944 130.763,109.944 133,110.5C 133.317,108.699 133.984,108.366 135,109.5C 133.793,107.05 133.127,104.383 133,101.5C 134.971,105.252 137.805,108.252 141.5,110.5C 143.645,108.268 145.145,105.601 146,102.5C 147.943,107.887 149.11,107.721 149.5,102C 148.564,95.1234 147.731,88.2901 147,81.5C 149.618,88.9521 151.284,96.6187 152,104.5C 152.333,104.833 152.667,105.167 153,105.5C 153.333,103.5 153.667,101.5 154,99.5C 155.011,98.6634 156.178,98.33 157.5,98.5C 157.5,97.5 157.5,96.5 157.5,95.5 Z"/></g>
<g><path style="opacity:1" fill="#b76e5b" d="M 190.5,117.5 C 192.167,117.5 193.833,117.5 195.5,117.5C 195.5,118.5 195.5,119.5 195.5,120.5C 194.5,120.5 193.5,120.5 192.5,120.5C 192.5,121.833 192.5,123.167 192.5,124.5C 192.461,128.733 191.795,132.733 190.5,136.5C 190.806,133.615 190.473,130.948 189.5,128.5C 189.5,126.833 189.5,125.167 189.5,123.5C 190.268,124.263 190.768,125.263 191,126.5C 191.736,123.408 191.569,120.408 190.5,117.5 Z"/></g>
<g><path style="opacity:1" fill="#cd7f4a" d="M 210.5,120.5 C 207.682,120.657 205.682,121.991 204.5,124.5C 204.5,123.167 204.5,121.833 204.5,120.5C 206.641,117.981 208.641,117.981 210.5,120.5 Z"/></g>
<g><path style="opacity:0.993" fill="#a36951" d="M 258.5,120.5 C 258.5,135.5 258.5,150.5 258.5,165.5C 257.833,165.5 257.5,165.833 257.5,166.5C 255.282,169.113 253.615,172.113 252.5,175.5C 251.752,177.332 250.752,178.999 249.5,180.5C 248.25,180.577 247.417,181.244 247,182.5C 246.667,182.167 246.333,181.833 246,181.5C 243.056,187.276 238.89,191.943 233.5,195.5C 230.68,194.35 230.346,193.184 232.5,192C 231.099,191.59 229.766,191.09 228.5,190.5C 228.414,189.504 228.748,188.671 229.5,188C 228.386,186.551 227.386,185.217 226.5,184C 227.76,182.887 228.927,182.72 230,183.5C 234.734,177.037 240.234,170.537 246.5,164C 246.167,163.667 245.833,163.333 245.5,163C 248.366,158.63 251.032,154.13 253.5,149.5C 252.998,148.284 252.665,147.117 252.5,146C 255.763,145.131 256.096,143.797 253.5,142C 255.053,140.903 256.386,139.57 257.5,138C 257.943,136.482 257.276,135.315 255.5,134.5C 256.025,133.808 256.692,133.308 257.5,133C 257.715,129.445 257.382,125.778 256.5,122C 257.044,121.283 257.711,120.783 258.5,120.5 Z"/></g>
<g><path style="opacity:1" fill="#eda4a3" d="M 123.5,117.5 C 125.167,117.5 126.833,117.5 128.5,117.5C 128.949,121.527 129.616,125.527 130.5,129.5C 130.167,130.167 129.833,130.833 129.5,131.5C 126.526,127.242 124.526,122.575 123.5,117.5 Z"/></g>
<g><path style="opacity:1" fill="#6f3426" d="M 189.5,116.5 C 189.833,116.5 190.167,116.5 190.5,116.5C 190.5,116.833 190.5,117.167 190.5,117.5C 191.569,120.408 191.736,123.408 191,126.5C 190.768,125.263 190.268,124.263 189.5,123.5C 189.631,122.761 189.464,122.094 189,121.5C 187.698,120.915 186.531,120.249 185.5,119.5C 187.404,119.262 188.738,118.262 189.5,116.5 Z"/></g>
<g><path style="opacity:1" fill="#192129" d="M 243.5,103.5 C 245.042,104.301 246.708,104.634 248.5,104.5C 248.5,106.167 248.5,107.833 248.5,109.5C 246.127,122.293 241.793,134.293 235.5,145.5C 235.78,138.627 234.78,131.96 232.5,125.5C 232.833,125.5 233.167,125.5 233.5,125.5C 234.873,125.657 236.207,125.49 237.5,125C 241.757,118.472 243.757,111.306 243.5,103.5 Z"/></g>
<g><path style="opacity:1" fill="#874744" d="M 114.5,144.5 C 114.433,145.959 114.766,147.292 115.5,148.5C 114.833,148.5 114.167,148.5 113.5,148.5C 112.58,147.933 112.246,148.599 112.5,150.5C 112.167,150.5 111.833,150.5 111.5,150.5C 111.5,148.833 111.5,147.167 111.5,145.5C 112.448,138.073 112.781,130.739 112.5,123.5C 113.557,125.003 114.224,126.67 114.5,128.5C 113.241,133.983 113.241,139.316 114.5,144.5 Z"/></g>
<g><path style="opacity:1" fill="#bc7151" d="M 210.5,120.5 C 211.5,121.167 212.5,121.833 213.5,122.5C 213.328,123.492 213.662,124.158 214.5,124.5C 214.517,126.565 214.85,128.565 215.5,130.5C 213.612,133.736 211.279,136.736 208.5,139.5C 207.957,139.44 207.624,139.107 207.5,138.5C 211.423,134.717 211.09,131.217 206.5,128C 206.667,127.5 206.833,127 207,126.5C 207.837,128.007 209.004,128.507 210.5,128C 209.313,126.981 208.313,125.814 207.5,124.5C 208.826,123.358 209.826,122.024 210.5,120.5 Z"/></g>
<g><path style="opacity:1" fill="#8b444e" d="M 213.5,100.5 C 214.978,100.238 216.311,100.571 217.5,101.5C 221.864,105.553 224.697,110.553 226,116.5C 226.154,113.768 225.654,111.102 224.5,108.5C 224.624,107.893 224.957,107.56 225.5,107.5C 227.341,113.767 229.674,119.767 232.5,125.5C 234.78,131.96 235.78,138.627 235.5,145.5C 234.958,148.912 233.625,151.912 231.5,154.5C 230.992,152.767 230.159,152.434 229,153.5C 227.771,157.621 226.271,161.621 224.5,165.5C 223.542,165.953 222.708,166.619 222,167.5C 221.34,164.953 221.507,162.453 222.5,160C 222.317,158.316 221.65,158.15 220.5,159.5C 220.674,157.139 221.007,154.806 221.5,152.5C 225.912,137.933 225.245,123.6 219.5,109.5C 218.83,111.291 218.163,112.958 217.5,114.5C 217.219,110.812 216.719,107.145 216,103.5C 215.302,102.309 214.469,101.309 213.5,100.5 Z"/></g>
<g><path style="opacity:1" fill="#eca59e" d="M 126.5,130.5 C 126.229,132.43 125.229,133.764 123.5,134.5C 123.167,134.5 122.833,134.5 122.5,134.5C 122.334,130.486 122.501,126.486 123,122.5C 124.456,125.032 125.623,127.699 126.5,130.5 Z"/></g>
<g><path style="opacity:1" fill="#935031" d="M 184.5,127.5 C 182.857,127.52 181.524,126.853 180.5,125.5C 179.548,127.045 179.215,128.712 179.5,130.5C 177.952,130.179 177.285,129.179 177.5,127.5C 176.602,126.842 175.602,126.176 174.5,125.5C 175.653,124.313 175.653,123.313 174.5,122.5C 175.799,120.901 177.465,120.401 179.5,121C 182.021,122.558 183.688,124.725 184.5,127.5 Z"/></g>
<g><path style="opacity:1" fill="#d3bfb3" d="M 185.5,119.5 C 186.531,120.249 187.698,120.915 189,121.5C 189.464,122.094 189.631,122.761 189.5,123.5C 189.5,125.167 189.5,126.833 189.5,128.5C 189.21,131.127 187.876,132.794 185.5,133.5C 185.5,132.833 185.5,132.167 185.5,131.5C 187.305,127.025 186.305,123.192 182.5,120C 183.448,119.517 184.448,119.351 185.5,119.5 Z"/></g>
<g><path style="opacity:1" fill="#cd7847" d="M 174.5,122.5 C 175.653,123.313 175.653,124.313 174.5,125.5C 175.602,126.176 176.602,126.842 177.5,127.5C 176.5,127.5 175.5,127.5 174.5,127.5C 174.5,128.833 174.5,130.167 174.5,131.5C 173.833,129.5 173.167,127.5 172.5,125.5C 172.427,123.973 173.094,122.973 174.5,122.5 Z"/></g>
<g><path style="opacity:1" fill="#ebd6c8" d="M 170.5,126.5 C 171.387,130.04 172.721,133.373 174.5,136.5C 168.743,136.25 166.743,133.417 168.5,128C 168.836,126.97 169.503,126.47 170.5,126.5 Z"/></g>
<g><path style="opacity:1" fill="#f9c55f" d="M 177.5,127.5 C 177.285,129.179 177.952,130.179 179.5,130.5C 182.811,129.145 183.811,130.145 182.5,133.5C 180.253,134.374 177.92,134.708 175.5,134.5C 175.737,133.209 175.404,132.209 174.5,131.5C 174.5,130.167 174.5,128.833 174.5,127.5C 175.5,127.5 176.5,127.5 177.5,127.5 Z"/></g>
<g><path style="opacity:1" fill="#da8685" d="M 105.5,113.5 C 105.5,115.167 105.5,116.833 105.5,118.5C 105.98,122.414 107.146,126.081 109,129.5C 109.638,128.391 110.138,127.225 110.5,126C 109.518,125.619 108.852,124.786 108.5,123.5C 109.992,121.028 110.658,118.361 110.5,115.5C 113.645,116.077 115.145,118.077 115,121.5C 115.708,120.619 116.542,119.953 117.5,119.5C 118.593,124.484 119.593,129.484 120.5,134.5C 120.5,135.5 120.5,136.5 120.5,137.5C 118.833,137.5 117.167,137.5 115.5,137.5C 115.326,139.861 114.993,142.194 114.5,144.5C 113.241,139.316 113.241,133.983 114.5,128.5C 114.224,126.67 113.557,125.003 112.5,123.5C 112.781,130.739 112.448,138.073 111.5,145.5C 109.44,141.651 107.773,137.651 106.5,133.5C 106.084,130.417 105.417,127.417 104.5,124.5C 104.185,120.629 104.518,116.962 105.5,113.5 Z"/></g>
<g><path style="opacity:1" fill="#b56654" d="M 159.5,125.5 C 159.649,126.552 159.483,127.552 159,128.5C 158.581,127.328 157.915,126.328 157,125.5C 156.922,127.657 156.755,129.657 156.5,131.5C 157.167,132.167 157.833,132.833 158.5,133.5C 157.313,133.554 155.98,133.887 154.5,134.5C 154.709,135.086 155.043,135.586 155.5,136C 153.167,136.333 150.833,136.667 148.5,137C 147.874,137.75 147.374,138.584 147,139.5C 145.629,137.959 144.129,136.625 142.5,135.5C 140.071,132.979 138.404,129.979 137.5,126.5C 139.637,128.107 141.97,130.273 144.5,133C 149.402,135.729 150.735,134.395 148.5,129C 148.667,128.167 148.833,127.333 149,126.5C 149.689,127.357 150.522,128.023 151.5,128.5C 152.329,123.533 152.829,118.533 153,113.5C 155.437,116.376 156.77,119.71 157,123.5C 157.708,124.381 158.542,125.047 159.5,125.5 Z"/></g>
<g><path style="opacity:1" fill="#8a4536" d="M 210.5,120.5 C 209.826,122.024 208.826,123.358 207.5,124.5C 208.313,125.814 209.313,126.981 210.5,128C 209.004,128.507 207.837,128.007 207,126.5C 206.833,127 206.667,127.5 206.5,128C 211.09,131.217 211.423,134.717 207.5,138.5C 207.624,139.107 207.957,139.44 208.5,139.5C 208.027,140.906 207.027,141.573 205.5,141.5C 205.795,139.265 205.461,137.265 204.5,135.5C 204.5,131.833 204.5,128.167 204.5,124.5C 205.682,121.991 207.682,120.657 210.5,120.5 Z"/></g>
<g><path style="opacity:1" fill="#dfa684" d="M 164.5,103.5 C 166.062,103.733 167.395,104.4 168.5,105.5C 170.412,108.995 172.079,112.662 173.5,116.5C 169.223,119.273 165.39,122.607 162,126.5C 161.333,127.167 161.333,127.833 162,128.5C 162.838,127.001 163.671,126.668 164.5,127.5C 164.369,128.239 164.536,128.906 165,129.5C 166.29,127.208 167.957,125.208 170,123.5C 170.483,124.448 170.649,125.448 170.5,126.5C 169.503,126.47 168.836,126.97 168.5,128C 166.743,133.417 168.743,136.25 174.5,136.5C 175.5,136.5 176.5,136.5 177.5,136.5C 180.431,135.993 183.098,134.993 185.5,133.5C 187.876,132.794 189.21,131.127 189.5,128.5C 190.473,130.948 190.806,133.615 190.5,136.5C 189.518,139.763 188.851,143.097 188.5,146.5C 186.599,148.796 184.266,150.629 181.5,152C 183.471,152.014 185.471,151.681 187.5,151C 191.909,145.177 192.409,145.677 189,152.5C 187.127,154.709 184.96,156.542 182.5,158C 183.5,158.667 184.5,158.667 185.5,158C 188.04,155.795 190.207,153.295 192,150.5C 192.49,151.793 192.657,153.127 192.5,154.5C 190.916,158.675 188.582,162.341 185.5,165.5C 179.713,171.559 173.046,176.392 165.5,180C 153.96,181.05 142.96,179.216 132.5,174.5C 131.299,172.091 129.633,170.091 127.5,168.5C 127.443,167.391 127.11,166.391 126.5,165.5C 130.717,162.748 135.384,160.581 140.5,159C 139.14,157.062 139.473,155.396 141.5,154C 140.5,153 139.5,152 138.5,151C 139.756,150.583 140.423,149.75 140.5,148.5C 142.309,144.079 141.309,140.246 137.5,137C 133.049,135.026 128.382,134.193 123.5,134.5C 125.229,133.764 126.229,132.43 126.5,130.5C 129.336,132.35 132.503,133.684 136,134.5C 136.765,134.43 137.265,134.097 137.5,133.5C 138.82,134.942 140.486,135.608 142.5,135.5C 144.129,136.625 145.629,137.959 147,139.5C 147.374,138.584 147.874,137.75 148.5,137C 150.833,136.667 153.167,136.333 155.5,136C 155.043,135.586 154.709,135.086 154.5,134.5C 155.98,133.887 157.313,133.554 158.5,133.5C 157.833,132.833 157.167,132.167 156.5,131.5C 156.755,129.657 156.922,127.657 157,125.5C 157.915,126.328 158.581,127.328 159,128.5C 159.483,127.552 159.649,126.552 159.5,125.5C 159.5,124.5 159.5,123.5 159.5,122.5C 160.75,122.577 161.583,123.244 162,124.5C 163.793,121.705 165.96,119.205 168.5,117C 167.451,116.508 166.451,116.674 165.5,117.5C 164.507,112.88 164.173,108.214 164.5,103.5 Z"/></g>
<g><path style="opacity:1" fill="#8b8781" d="M 78.5,133.5 C 78.5,134.167 78.8333,134.5 79.5,134.5C 78.0121,143.896 78.3454,153.23 80.5,162.5C 80.1667,162.5 79.8333,162.5 79.5,162.5C 76.1366,152.913 75.8032,143.246 78.5,133.5 Z"/></g>
<g><path style="opacity:1" fill="#964f36" d="M 172.5,125.5 C 173.167,127.5 173.833,129.5 174.5,131.5C 175.404,132.209 175.737,133.209 175.5,134.5C 176.167,135.167 176.833,135.833 177.5,136.5C 176.5,136.5 175.5,136.5 174.5,136.5C 172.721,133.373 171.387,130.04 170.5,126.5C 171.925,128.031 172.591,127.698 172.5,125.5 Z"/></g>
<g><path style="opacity:1" fill="#ce7e44" d="M 184.5,127.5 C 184.232,129.099 184.566,130.432 185.5,131.5C 185.5,132.167 185.5,132.833 185.5,133.5C 183.098,134.993 180.431,135.993 177.5,136.5C 176.833,135.833 176.167,135.167 175.5,134.5C 177.92,134.708 180.253,134.374 182.5,133.5C 183.811,130.145 182.811,129.145 179.5,130.5C 179.215,128.712 179.548,127.045 180.5,125.5C 181.524,126.853 182.857,127.52 184.5,127.5 Z"/></g>
<g><path style="opacity:1" fill="#efb0ab" d="M 192.5,139.5 C 191.404,142.032 190.071,144.365 188.5,146.5C 188.851,143.097 189.518,139.763 190.5,136.5C 191.795,132.733 192.461,128.733 192.5,124.5C 193.268,123.737 193.768,122.737 194,121.5C 194.057,130.298 195.057,130.965 197,123.5C 197.172,126.826 197.005,130.159 196.5,133.5C 195.5,133.5 194.5,133.5 193.5,133.5C 193.675,135.621 193.341,137.621 192.5,139.5 Z"/></g>
<g><path style="opacity:1" fill="#7d404a" d="M 215.5,130.5 C 215.666,136.842 215.5,143.175 215,149.5C 213.501,155.154 211.834,160.821 210,166.5C 209.311,167.357 208.478,168.023 207.5,168.5C 206.34,166.854 205.673,165.021 205.5,163C 205.688,155.931 205.688,148.764 205.5,141.5C 207.027,141.573 208.027,140.906 208.5,139.5C 211.279,136.736 213.612,133.736 215.5,130.5 Z"/></g>
<g><path style="opacity:1" fill="#3c201b" d="M 120.5,134.5 C 121.167,134.5 121.833,134.5 122.5,134.5C 122.833,134.5 123.167,134.5 123.5,134.5C 128.382,134.193 133.049,135.026 137.5,137C 141.309,140.246 142.309,144.079 140.5,148.5C 140.768,146.901 140.434,145.568 139.5,144.5C 139.213,142.879 138.213,141.879 136.5,141.5C 136.446,142.687 136.113,144.02 135.5,145.5C 134.478,145.145 133.811,144.478 133.5,143.5C 132.803,141.929 132.47,140.429 132.5,139C 131.004,138.493 129.837,138.993 129,140.5C 129.522,142.049 129.355,143.549 128.5,145C 128.95,146.285 129.617,147.452 130.5,148.5C 130.376,149.107 130.043,149.44 129.5,149.5C 128.123,147.711 127.123,145.711 126.5,143.5C 126.66,141.801 126.494,140.134 126,138.5C 124,139.833 122,141.167 120,142.5C 119.167,145.171 119.667,147.504 121.5,149.5C 121.565,149.938 121.399,150.272 121,150.5C 119.416,149.139 117.582,148.472 115.5,148.5C 114.766,147.292 114.433,145.959 114.5,144.5C 114.993,142.194 115.326,139.861 115.5,137.5C 117.167,137.5 118.833,137.5 120.5,137.5C 120.5,136.5 120.5,135.5 120.5,134.5 Z"/></g>
<g><path style="opacity:1" fill="#c4a798" d="M 126.5,143.5 C 123.956,144.708 122.622,146.708 122.5,149.5C 122.167,149.5 121.833,149.5 121.5,149.5C 119.667,147.504 119.167,145.171 120,142.5C 122,141.167 124,139.833 126,138.5C 126.494,140.134 126.66,141.801 126.5,143.5 Z"/></g>
<g><path style="opacity:1" fill="#ba6974" d="M 221.5,152.5 C 220.761,141.314 219.927,129.981 219,118.5C 218.221,127.529 218.388,136.529 219.5,145.5C 218.444,151.067 216.777,156.4 214.5,161.5C 212.971,165.368 210.637,168.701 207.5,171.5C 208.04,172.748 208.707,173.915 209.5,175C 208.551,175.617 207.718,175.451 207,174.5C 206.167,172.5 205.333,170.5 204.5,168.5C 203.079,172.027 202.412,175.694 202.5,179.5C 202.167,179.5 201.833,179.5 201.5,179.5C 201.649,178.448 201.483,177.448 201,176.5C 199.533,179.266 197.7,181.766 195.5,184C 196.094,184.464 196.761,184.631 197.5,184.5C 196.329,185.345 194.995,186.011 193.5,186.5C 194.391,183.423 195.224,180.423 196,177.5C 194.351,179.65 192.518,181.65 190.5,183.5C 189.537,183.03 189.537,182.363 190.5,181.5C 195.016,173.955 198.682,165.955 201.5,157.5C 202.812,150.346 203.812,143.013 204.5,135.5C 205.461,137.265 205.795,139.265 205.5,141.5C 205.688,148.764 205.688,155.931 205.5,163C 205.673,165.021 206.34,166.854 207.5,168.5C 208.478,168.023 209.311,167.357 210,166.5C 211.834,160.821 213.501,155.154 215,149.5C 215.5,143.175 215.666,136.842 215.5,130.5C 214.85,128.565 214.517,126.565 214.5,124.5C 216.298,130.421 217.131,136.754 217,143.5C 217.5,133.839 217.666,124.172 217.5,114.5C 218.163,112.958 218.83,111.291 219.5,109.5C 225.245,123.6 225.912,137.933 221.5,152.5 Z"/></g>
<g><path style="opacity:1" fill="#313033" d="M 81.5,144.5 C 80.5166,148.298 80.1832,152.298 80.5,156.5C 80.9263,159.21 82.0929,161.544 84,163.5C 84.765,165.066 84.5983,166.399 83.5,167.5C 82.075,166.078 81.075,164.411 80.5,162.5C 78.3454,153.23 78.0121,143.896 79.5,134.5C 80.6847,129.097 82.1847,123.763 84,118.5C 83.7403,127.188 82.907,135.854 81.5,144.5 Z"/></g>
<g><path style="opacity:1" fill="#b26039" d="M 133.5,143.5 C 132.167,145.5 132.167,147.5 133.5,149.5C 133.586,150.496 133.252,151.329 132.5,152C 133.094,152.464 133.761,152.631 134.5,152.5C 133.779,154.382 132.779,154.715 131.5,153.5C 131.267,151.938 130.6,150.605 129.5,149.5C 130.043,149.44 130.376,149.107 130.5,148.5C 129.617,147.452 128.95,146.285 128.5,145C 129.355,143.549 129.522,142.049 129,140.5C 129.837,138.993 131.004,138.493 132.5,139C 132.47,140.429 132.803,141.929 133.5,143.5 Z"/></g>
<g><path style="opacity:1" fill="#db8b41" d="M 139.5,144.5 C 138.883,144.389 138.383,144.056 138,143.5C 136.791,145.816 135.291,147.816 133.5,149.5C 132.167,147.5 132.167,145.5 133.5,143.5C 133.811,144.478 134.478,145.145 135.5,145.5C 136.113,144.02 136.446,142.687 136.5,141.5C 138.213,141.879 139.213,142.879 139.5,144.5 Z"/></g>
<g><path style="opacity:1" fill="#f9eee3" d="M 126.5,143.5 C 127.123,145.711 128.123,147.711 129.5,149.5C 130.6,150.605 131.267,151.938 131.5,153.5C 128.237,153.355 125.237,152.021 122.5,149.5C 122.622,146.708 123.956,144.708 126.5,143.5 Z"/></g>
<g><path style="opacity:1" fill="#f9d268" d="M 139.5,144.5 C 139.657,145.873 139.49,147.207 139,148.5C 137.306,149.699 135.806,151.032 134.5,152.5C 133.761,152.631 133.094,152.464 132.5,152C 133.252,151.329 133.586,150.496 133.5,149.5C 135.291,147.816 136.791,145.816 138,143.5C 138.383,144.056 138.883,144.389 139.5,144.5 Z"/></g>
<g><path style="opacity:1" fill="#924f3f" d="M 192.5,139.5 C 193.487,144.305 193.821,149.305 193.5,154.5C 193.167,154.5 192.833,154.5 192.5,154.5C 192.657,153.127 192.49,151.793 192,150.5C 190.207,153.295 188.04,155.795 185.5,158C 184.5,158.667 183.5,158.667 182.5,158C 184.96,156.542 187.127,154.709 189,152.5C 192.409,145.677 191.909,145.177 187.5,151C 185.471,151.681 183.471,152.014 181.5,152C 184.266,150.629 186.599,148.796 188.5,146.5C 190.071,144.365 191.404,142.032 192.5,139.5 Z"/></g>
<g><path style="opacity:1" fill="#2d2e31" d="M 86.5,147.5 C 86.6646,150.518 86.498,153.518 86,156.5C 84.9614,155.756 84.4614,154.756 84.5,153.5C 84.5,150.167 84.5,146.833 84.5,143.5C 84.1253,140.603 84.6253,137.937 86,135.5C 86.4988,139.486 86.6655,143.486 86.5,147.5 Z"/></g>
<g><path style="opacity:1" fill="#e79090" d="M 111.5,150.5 C 111.833,150.5 112.167,150.5 112.5,150.5C 113.576,153.648 114.909,156.648 116.5,159.5C 115.833,159.5 115.167,159.5 114.5,159.5C 111.229,156.732 108.062,153.732 105,150.5C 104.601,150.728 104.435,151.062 104.5,151.5C 102.892,148.79 101.725,145.79 101,142.5C 100.333,141.167 100.333,139.833 101,138.5C 103.041,141.919 104.541,145.586 105.5,149.5C 106.051,147.587 106.218,145.587 106,143.5C 107.185,145.377 108.185,147.377 109,149.5C 109.671,150.252 110.504,150.586 111.5,150.5 Z"/></g>
<g><path style="opacity:1" fill="#eda2a3" d="M 204.5,116.5 C 204.5,117.833 204.5,119.167 204.5,120.5C 204.5,121.833 204.5,123.167 204.5,124.5C 204.5,128.167 204.5,131.833 204.5,135.5C 203.812,143.013 202.812,150.346 201.5,157.5C 200.956,155.42 200.122,153.42 199,151.5C 198,153.833 197,156.167 196,158.5C 195.802,156.618 195.302,154.952 194.5,153.5C 194.334,148.489 194.501,143.489 195,138.5C 195.333,142.167 195.667,145.833 196,149.5C 200.248,137.178 202.581,124.511 203,111.5C 203.198,113.382 203.698,115.048 204.5,116.5 Z"/></g>
<g><path style="opacity:1" fill="#91786b" d="M 84.5,143.5 C 84.5,146.833 84.5,150.167 84.5,153.5C 83.5,153.5 82.5,153.5 81.5,153.5C 81.7373,154.791 81.404,155.791 80.5,156.5C 80.1832,152.298 80.5166,148.298 81.5,144.5C 81.3379,146.527 81.5045,148.527 82,150.5C 82.1558,147.809 82.9891,145.476 84.5,143.5 Z"/></g>
<g><path style="opacity:1" fill="#da9573" d="M 139.5,144.5 C 140.434,145.568 140.768,146.901 140.5,148.5C 140.423,149.75 139.756,150.583 138.5,151C 139.5,152 140.5,153 141.5,154C 139.473,155.396 139.14,157.062 140.5,159C 135.384,160.581 130.717,162.748 126.5,165.5C 122.956,165.868 119.956,164.868 117.5,162.5C 116.694,161.272 115.694,160.272 114.5,159.5C 115.167,159.5 115.833,159.5 116.5,159.5C 117.605,160.6 118.938,161.267 120.5,161.5C 121.287,163.104 122.62,163.771 124.5,163.5C 124.649,162.448 124.483,161.448 124,160.5C 120.484,156.759 116.984,153.092 113.5,149.5C 113.5,149.167 113.5,148.833 113.5,148.5C 114.167,148.5 114.833,148.5 115.5,148.5C 117.582,148.472 119.416,149.139 121,150.5C 121.399,150.272 121.565,149.938 121.5,149.5C 121.833,149.5 122.167,149.5 122.5,149.5C 125.237,152.021 128.237,153.355 131.5,153.5C 132.779,154.715 133.779,154.382 134.5,152.5C 135.806,151.032 137.306,149.699 139,148.5C 139.49,147.207 139.657,145.873 139.5,144.5 Z"/></g>
<g><path style="opacity:1" fill="#c46567" d="M 114.5,159.5 C 115.694,160.272 116.694,161.272 117.5,162.5C 112.398,161.243 108.565,158.243 106,153.5C 105.601,153.728 105.435,154.062 105.5,154.5C 104.596,153.791 104.263,152.791 104.5,151.5C 104.435,151.062 104.601,150.728 105,150.5C 108.062,153.732 111.229,156.732 114.5,159.5 Z"/></g>
<g><path style="opacity:1" fill="#9a5462" d="M 221.5,152.5 C 221.007,154.806 220.674,157.139 220.5,159.5C 219.645,164.417 217.645,168.75 214.5,172.5C 213.233,173.087 212.233,173.087 211.5,172.5C 212.549,169.177 213.883,166.01 215.5,163C 215.43,162.235 215.097,161.735 214.5,161.5C 216.777,156.4 218.444,151.067 219.5,145.5C 218.388,136.529 218.221,127.529 219,118.5C 219.927,129.981 220.761,141.314 221.5,152.5 Z"/></g>
<g><path style="opacity:1" fill="#381e19" d="M 231.5,154.5 C 229.527,158.457 227.194,162.124 224.5,165.5C 226.271,161.621 227.771,157.621 229,153.5C 230.159,152.434 230.992,152.767 231.5,154.5 Z"/></g>
<g><path style="opacity:1" fill="#331915" d="M 113.5,148.5 C 113.5,148.833 113.5,149.167 113.5,149.5C 115.008,154.002 117.341,158.002 120.5,161.5C 118.938,161.267 117.605,160.6 116.5,159.5C 114.909,156.648 113.576,153.648 112.5,150.5C 112.246,148.599 112.58,147.933 113.5,148.5 Z"/></g>
<g><path style="opacity:1" fill="#f5b0ac" d="M 106.5,133.5 C 107.773,137.651 109.44,141.651 111.5,145.5C 111.5,147.167 111.5,148.833 111.5,150.5C 110.504,150.586 109.671,150.252 109,149.5C 108.185,147.377 107.185,145.377 106,143.5C 106.218,145.587 106.051,147.587 105.5,149.5C 104.541,145.586 103.041,141.919 101,138.5C 100.333,139.833 100.333,141.167 101,142.5C 101.725,145.79 102.892,148.79 104.5,151.5C 104.263,152.791 104.596,153.791 105.5,154.5C 106.715,159.047 108.382,163.38 110.5,167.5C 107.832,165.664 105.666,163.331 104,160.5C 101.058,152.732 99.058,144.732 98,136.5C 96.0284,150.323 98.0284,163.323 104,175.5C 102.171,173.844 100.837,171.844 100,169.5C 98.32,164.423 96.82,159.423 95.5,154.5C 94.8333,150.833 94.1667,147.167 93.5,143.5C 94.3303,133.341 94.8303,123.008 95,112.5C 94.7065,118.007 96.0398,123.007 99,127.5C 99.3333,125.833 99.6667,124.167 100,122.5C 101.37,127.346 103.537,131.012 106.5,133.5 Z"/></g>
<g><path style="opacity:1" fill="#7c3527" d="M 113.5,149.5 C 116.984,153.092 120.484,156.759 124,160.5C 124.483,161.448 124.649,162.448 124.5,163.5C 122.62,163.771 121.287,163.104 120.5,161.5C 117.341,158.002 115.008,154.002 113.5,149.5 Z"/></g>
<g><path style="opacity:1" fill="#ea9899" d="M 93.5,143.5 C 94.1667,147.167 94.8333,150.833 95.5,154.5C 94.8188,159.214 93.6521,163.881 92,168.5C 91.059,170.727 89.8923,172.727 88.5,174.5C 88.838,169.814 89.0047,165.147 89,160.5C 88.6174,161.056 88.1174,161.389 87.5,161.5C 87.5,159.833 87.5,158.167 87.5,156.5C 88.9311,156.119 89.7645,155.119 90,153.5C 89.9168,138.502 89.9168,123.502 90,108.5C 89.9501,120.324 91.1168,131.99 93.5,143.5 Z"/></g>
<g><path style="opacity:1" fill="#5f3729" d="M 171.5,162.5 C 169.915,161.467 168.581,160.134 167.5,158.5C 168.568,157.566 169.901,157.232 171.5,157.5C 171.5,159.167 171.5,160.833 171.5,162.5 Z"/></g>
<g><path style="opacity:1" fill="#f7bcb8" d="M 201.5,157.5 C 198.682,165.955 195.016,173.955 190.5,181.5C 189.662,181.158 189.328,180.492 189.5,179.5C 191.118,175.311 192.118,170.978 192.5,166.5C 193.477,163.713 193.81,160.713 193.5,157.5C 193.5,156.833 193.5,156.167 193.5,155.5C 194.338,155.158 194.672,154.492 194.5,153.5C 195.302,154.952 195.802,156.618 196,158.5C 197,156.167 198,153.833 199,151.5C 200.122,153.42 200.956,155.42 201.5,157.5 Z"/></g>
<g><path style="opacity:1" fill="#a4535c" d="M 193.5,157.5 C 193.81,160.713 193.477,163.713 192.5,166.5C 191.4,168.277 190.566,170.277 190,172.5C 189.828,169.174 189.995,165.841 190.5,162.5C 190.75,160.326 191.75,158.659 193.5,157.5 Z"/></g>
<g><path style="opacity:1" fill="#dc7e70" d="M 167.5,158.5 C 168.581,160.134 169.915,161.467 171.5,162.5C 168.311,169.177 163.311,171.177 156.5,168.5C 156.365,167.019 156.699,165.353 157.5,163.5C 161.093,162.201 164.426,160.535 167.5,158.5 Z"/></g>
<g><path style="opacity:1" fill="#823d44" d="M 117.5,162.5 C 119.956,164.868 122.956,165.868 126.5,165.5C 127.11,166.391 127.443,167.391 127.5,168.5C 125.521,166.832 123.188,166.166 120.5,166.5C 120.691,169.985 121.691,173.151 123.5,176C 122.181,176.195 120.847,176.028 119.5,175.5C 118.833,175.167 118.167,174.833 117.5,174.5C 117.611,173.883 117.944,173.383 118.5,173C 115.935,170.92 113.268,169.087 110.5,167.5C 108.382,163.38 106.715,159.047 105.5,154.5C 105.435,154.062 105.601,153.728 106,153.5C 108.565,158.243 112.398,161.243 117.5,162.5 Z"/></g>
<g><path style="opacity:1" fill="#c47371" d="M 86.5,147.5 C 87.4767,150.287 87.81,153.287 87.5,156.5C 87.5,158.167 87.5,159.833 87.5,161.5C 87.1558,164.562 86.4891,167.562 85.5,170.5C 84.5748,169.643 83.9081,168.643 83.5,167.5C 84.5983,166.399 84.765,165.066 84,163.5C 82.0929,161.544 80.9263,159.21 80.5,156.5C 81.404,155.791 81.7373,154.791 81.5,153.5C 82.5,153.5 83.5,153.5 84.5,153.5C 84.4614,154.756 84.9614,155.756 86,156.5C 86.498,153.518 86.6646,150.518 86.5,147.5 Z"/></g>
<g><path style="opacity:1" fill="#a95a61" d="M 110.5,167.5 C 113.268,169.087 115.935,170.92 118.5,173C 117.944,173.383 117.611,173.883 117.5,174.5C 118.384,181.702 120.051,188.702 122.5,195.5C 122.5,196.167 122.5,196.833 122.5,197.5C 120.833,197.5 119.167,197.5 117.5,197.5C 115.945,194.06 114.112,190.727 112,187.5C 111.5,188.5 111,189.5 110.5,190.5C 112.605,192.592 114.272,194.925 115.5,197.5C 115.158,198.338 114.492,198.672 113.5,198.5C 113.167,198.5 112.833,198.5 112.5,198.5C 108.024,192.544 104.857,185.878 103,178.5C 102.711,183.507 101.544,188.174 99.5,192.5C 98.8333,192.167 98.1667,191.833 97.5,191.5C 96.434,189.148 95.2673,186.814 94,184.5C 93.6082,188.528 93.1082,192.528 92.5,196.5C 90.5225,189.946 89.1892,183.279 88.5,176.5C 88.5,175.833 88.5,175.167 88.5,174.5C 89.8923,172.727 91.059,170.727 92,168.5C 93.6521,163.881 94.8188,159.214 95.5,154.5C 96.82,159.423 98.32,164.423 100,169.5C 100.837,171.844 102.171,173.844 104,175.5C 98.0284,163.323 96.0284,150.323 98,136.5C 99.058,144.732 101.058,152.732 104,160.5C 105.666,163.331 107.832,165.664 110.5,167.5 Z"/></g>
<g><path style="opacity:1" fill="#52241c" d="M 157.5,163.5 C 156.699,165.353 156.365,167.019 156.5,168.5C 151.778,167.085 151.445,165.085 155.5,162.5C 156.183,162.863 156.85,163.196 157.5,163.5 Z"/></g>
<g><path style="opacity:1" fill="#1c1e24" d="M 224.5,165.5 C 224.443,166.609 224.11,167.609 223.5,168.5C 220.471,169.84 217.471,171.173 214.5,172.5C 217.645,168.75 219.645,164.417 220.5,159.5C 221.65,158.15 222.317,158.316 222.5,160C 221.507,162.453 221.34,164.953 222,167.5C 222.708,166.619 223.542,165.953 224.5,165.5 Z"/></g>
<g><path style="opacity:1" fill="#757679" d="M 296.5,162.5 C 301.295,161.563 304.628,163.23 306.5,167.5C 306.333,168.167 306.167,168.833 306,169.5C 303.434,164.242 299.767,163.242 295,166.5C 293,172.5 293,178.5 295,184.5C 297.679,187.835 300.845,188.335 304.5,186C 305.444,183.281 305.777,180.448 305.5,177.5C 303.801,177.66 302.134,177.494 300.5,177C 302.81,176.503 305.143,176.337 307.5,176.5C 308.342,188.818 303.509,191.818 293,185.5C 291.473,179.585 291.139,173.585 292,167.5C 293.025,165.313 294.525,163.646 296.5,162.5 Z"/></g>
<g><path style="opacity:1" fill="#efd8c8" d="M 88.5,174.5 C 88.5,175.167 88.5,175.833 88.5,176.5C 86.0805,180.1 83.4138,183.6 80.5,187C 77.9454,188.444 75.2787,189.611 72.5,190.5C 69.2783,189.703 67.7783,187.703 68,184.5C 70.2103,187.29 73.0437,188.123 76.5,187C 80.5237,182.136 82.6904,176.636 83,170.5C 80.0561,168.628 78.8895,165.961 79.5,162.5C 79.8333,162.5 80.1667,162.5 80.5,162.5C 81.075,164.411 82.075,166.078 83.5,167.5C 83.9081,168.643 84.5748,169.643 85.5,170.5C 86.4891,167.562 87.1558,164.562 87.5,161.5C 88.1174,161.389 88.6174,161.056 89,160.5C 89.0047,165.147 88.838,169.814 88.5,174.5 Z"/></g>
<g><path style="opacity:1" fill="#603c45" d="M 190.5,162.5 C 189.995,165.841 189.828,169.174 190,172.5C 190.566,170.277 191.4,168.277 192.5,166.5C 192.118,170.978 191.118,175.311 189.5,179.5C 189.167,179.5 188.833,179.5 188.5,179.5C 188.471,175.895 187.805,172.395 186.5,169C 186.398,165.938 187.731,163.771 190.5,162.5 Z"/></g>
<g><path style="opacity:1" fill="#a05d6a" d="M 127.5,168.5 C 129.633,170.091 131.299,172.091 132.5,174.5C 133.749,176.136 135.416,177.303 137.5,178C 143.501,179.662 149.501,181.162 155.5,182.5C 155.179,184.048 154.179,184.715 152.5,184.5C 152.975,187.082 152.308,189.082 150.5,190.5C 150.736,187.774 149.903,185.441 148,183.5C 146.53,186.744 145.363,190.077 144.5,193.5C 141.5,191.332 139,188.666 137,185.5C 135.604,189.245 134.77,192.912 134.5,196.5C 133.833,196.5 133.167,196.5 132.5,196.5C 132.733,190.394 132.066,184.394 130.5,178.5C 130.04,185.069 127.706,190.736 123.5,195.5C 123.5,194.5 123.5,193.5 123.5,192.5C 124.339,191.359 125.006,190.026 125.5,188.5C 124.049,184.097 122.049,180.097 119.5,176.5C 119.5,176.167 119.5,175.833 119.5,175.5C 120.847,176.028 122.181,176.195 123.5,176C 121.691,173.151 120.691,169.985 120.5,166.5C 123.188,166.166 125.521,166.832 127.5,168.5 Z"/></g>
<g><path style="opacity:1" fill="#727275" d="M 395.5,169.5 C 396.75,169.577 397.583,170.244 398,171.5C 400.418,169.32 403.084,168.987 406,170.5C 407.743,176.416 407.91,182.416 406.5,188.5C 405.671,183.198 405.171,177.864 405,172.5C 402.408,171.018 400.075,171.352 398,173.5C 397.829,178.533 397.329,183.533 396.5,188.5C 395.504,182.202 395.17,175.868 395.5,169.5 Z"/></g>
<g><path style="opacity:1" fill="#78797b" d="M 415.5,169.5 C 418.044,169.104 420.211,169.771 422,171.5C 422.308,170.692 422.808,170.025 423.5,169.5C 424.665,177.145 424.831,184.812 424,192.5C 421.217,196.823 417.717,197.49 413.5,194.5C 415.672,194.324 418.005,194.157 420.5,194C 422.187,192.087 422.687,189.92 422,187.5C 417.659,189.51 414.325,188.51 412,184.5C 410.559,178.731 411.725,173.731 415.5,169.5 Z"/></g>
<g><path style="opacity:1" fill="#77787b" d="M 429.5,169.5 C 430.818,172.258 431.485,175.424 431.5,179C 431.167,182.167 430.833,185.333 430.5,188.5C 429.504,182.202 429.17,175.868 429.5,169.5 Z"/></g>
<g><path style="opacity:1" fill="#7d7e81" d="M 436.5,169.5 C 438.185,170.184 439.185,171.517 439.5,173.5C 438.881,178.482 438.214,183.482 437.5,188.5C 436.504,182.202 436.17,175.868 436.5,169.5 Z"/></g>
<g><path style="opacity:1" fill="#a15c44" d="M 184.5,176.5 C 179.334,179.248 174.334,182.248 169.5,185.5C 168.957,185.44 168.624,185.107 168.5,184.5C 169.26,182.64 170.26,180.973 171.5,179.5C 175.876,176.204 180.042,172.537 184,168.5C 184.497,171.146 184.664,173.813 184.5,176.5 Z"/></g>
<g><path style="opacity:1" fill="#8a4f6b" d="M 258.5,165.5 C 258.5,172.5 258.5,179.5 258.5,186.5C 257.542,186.953 256.708,187.619 256,188.5C 253.77,180.986 254.27,173.652 257.5,166.5C 257.5,165.833 257.833,165.5 258.5,165.5 Z"/></g>
<g><path style="opacity:1" fill="#797a7c" d="M 329.5,169.5 C 330.75,169.577 331.583,170.244 332,171.5C 335.294,168.689 338.294,169.022 341,172.5C 344.843,168.271 348.177,168.605 351,173.5C 350.999,193.5 350.332,193.5 349,173.5C 346.667,170.833 344.333,170.833 342,173.5C 341,193.5 340,193.5 339,173.5C 336.667,170.833 334.333,170.833 332,173.5C 331.829,178.533 331.329,183.533 330.5,188.5C 329.504,182.202 329.17,175.868 329.5,169.5 Z"/></g>
<g><path style="opacity:1" fill="#f7f7f7" d="M 415.5,171.5 C 418.044,171.104 420.211,171.771 422,173.5C 422.796,177.755 422.629,181.921 421.5,186C 418.166,187.212 415.666,186.379 414,183.5C 413.083,179.238 413.583,175.238 415.5,171.5 Z"/></g>
<g><path style="opacity:1" fill="#7d7e80" d="M 441.5,169.5 C 445.182,168.725 447.682,170.059 449,173.5C 448.999,193.5 448.332,193.5 447,173.5C 445.174,171.926 443.007,171.093 440.5,171C 441.056,170.617 441.389,170.117 441.5,169.5 Z"/></g>
<g><path style="opacity:1" fill="#7d7e80" d="M 359.5,169.5 C 366.134,169.384 369.134,172.717 368.5,179.5C 364.833,179.5 361.167,179.5 357.5,179.5C 357.489,186.524 360.489,188.524 366.5,185.5C 367.604,186.631 367.271,187.465 365.5,188C 361.219,189.458 358.053,188.292 356,184.5C 355.333,180.833 355.333,177.167 356,173.5C 356.69,171.65 357.856,170.316 359.5,169.5 Z"/></g>
<g><path style="opacity:1" fill="#f8f8f8" d="M 359.5,171.5 C 364.5,170.5 366.5,172.5 365.5,177.5C 362.833,177.5 360.167,177.5 357.5,177.5C 357.253,175.142 357.919,173.142 359.5,171.5 Z"/></g>
<g><path style="opacity:1" fill="#78797b" d="M 382.5,169.5 C 389.588,168.961 392.588,172.294 391.5,179.5C 387.833,179.5 384.167,179.5 380.5,179.5C 380.905,186.98 384.238,189.313 390.5,186.5C 390.291,187.086 389.957,187.586 389.5,188C 384.525,189.645 381.025,188.145 379,183.5C 377.608,178.093 378.774,173.426 382.5,169.5 Z"/></g>
<g><path style="opacity:1" fill="#f7f7f7" d="M 382.5,171.5 C 387.339,170.677 389.673,172.677 389.5,177.5C 386.5,177.5 383.5,177.5 380.5,177.5C 380.704,175.315 381.37,173.315 382.5,171.5 Z"/></g>
<g><path style="opacity:1" fill="#7c7d80" d="M 456.5,169.5 C 463.783,168.783 467.116,172.116 466.5,179.5C 462.833,179.5 459.167,179.5 455.5,179.5C 455.489,186.524 458.489,188.524 464.5,185.5C 464.833,185.833 465.167,186.167 465.5,186.5C 457.335,190.848 453.335,188.348 453.5,179C 453.109,175.329 454.109,172.162 456.5,169.5 Z"/></g>
<g><path style="opacity:1" fill="#f9f9f9" d="M 457.5,171.5 C 462.5,170.5 464.5,172.5 463.5,177.5C 460.833,177.5 458.167,177.5 455.5,177.5C 455.253,175.142 455.919,173.142 457.5,171.5 Z"/></g>
<g><path style="opacity:1" fill="#2b262c" d="M 214.5,161.5 C 215.097,161.735 215.43,162.235 215.5,163C 213.883,166.01 212.549,169.177 211.5,172.5C 212.233,173.087 213.233,173.087 214.5,172.5C 212.869,174.643 210.869,176.31 208.5,177.5C 207.167,178.5 205.833,179.5 204.5,180.5C 203.508,180.672 202.842,180.338 202.5,179.5C 202.412,175.694 203.079,172.027 204.5,168.5C 205.333,170.5 206.167,172.5 207,174.5C 207.718,175.451 208.551,175.617 209.5,175C 208.707,173.915 208.04,172.748 207.5,171.5C 210.637,168.701 212.971,165.368 214.5,161.5 Z"/></g>
<g><path style="opacity:1" fill="#27282d" d="M 201.5,179.5 C 200.197,181.142 198.864,182.809 197.5,184.5C 196.761,184.631 196.094,184.464 195.5,184C 197.7,181.766 199.533,179.266 201,176.5C 201.483,177.448 201.649,178.448 201.5,179.5 Z"/></g>
<g><path style="opacity:1" fill="#5a2b25" d="M 185.5,165.5 C 185.815,169.371 185.482,173.038 184.5,176.5C 184.664,173.813 184.497,171.146 184,168.5C 180.042,172.537 175.876,176.204 171.5,179.5C 168.452,180.794 165.285,181.794 162,182.5C 159.971,181.597 158.137,181.597 156.5,182.5C 156.167,182.5 155.833,182.5 155.5,182.5C 149.501,181.162 143.501,179.662 137.5,178C 135.416,177.303 133.749,176.136 132.5,174.5C 142.96,179.216 153.96,181.05 165.5,180C 173.046,176.392 179.713,171.559 185.5,165.5 Z"/></g>
<g><path style="opacity:1" fill="#80402d" d="M 171.5,179.5 C 170.26,180.973 169.26,182.64 168.5,184.5C 168.624,185.107 168.957,185.44 169.5,185.5C 167.832,187.34 166.332,189.34 165,191.5C 164.388,188.885 162.888,187.219 160.5,186.5C 159.167,185.167 157.833,183.833 156.5,182.5C 158.137,181.597 159.971,181.597 162,182.5C 165.285,181.794 168.452,180.794 171.5,179.5 Z"/></g>
<g><path style="opacity:1" fill="#4b3024" d="M 184.5,176.5 C 184.611,177.117 184.944,177.617 185.5,178C 177.559,182.111 171.559,187.944 167.5,195.5C 166.469,194.751 165.302,194.085 164,193.5C 163.347,190.861 162.18,188.527 160.5,186.5C 162.888,187.219 164.388,188.885 165,191.5C 166.332,189.34 167.832,187.34 169.5,185.5C 174.334,182.248 179.334,179.248 184.5,176.5 Z"/></g>
<g><path style="opacity:1" fill="#4a484c" d="M 119.5,176.5 C 122.049,180.097 124.049,184.097 125.5,188.5C 125.006,190.026 124.339,191.359 123.5,192.5C 122.185,187.191 120.852,181.857 119.5,176.5 Z"/></g>
<g><path style="opacity:1" fill="#de9595" d="M 193.5,186.5 C 192.5,186.833 191.833,187.5 191.5,188.5C 191.5,189.167 191.167,189.5 190.5,189.5C 189.675,187.678 189.342,186.011 189.5,184.5C 187.578,186.687 185.912,189.02 184.5,191.5C 182.287,193.86 179.621,195.694 176.5,197C 174.926,197.699 173.593,197.365 172.5,196C 177.898,195.611 182.065,193.111 185,188.5C 185.99,185.374 187.156,182.374 188.5,179.5C 188.833,179.5 189.167,179.5 189.5,179.5C 189.328,180.492 189.662,181.158 190.5,181.5C 189.537,182.363 189.537,183.03 190.5,183.5C 192.518,181.65 194.351,179.65 196,177.5C 195.224,180.423 194.391,183.423 193.5,186.5 Z"/></g>
<g><path style="opacity:1" fill="#7b7c7e" d="M 315.5,169.5 C 318.97,168.875 321.804,169.875 324,172.5C 324.829,177.864 324.663,183.198 323.5,188.5C 322.808,187.975 322.308,187.308 322,186.5C 319.24,188.703 316.24,189.036 313,187.5C 311.451,179.879 314.618,176.546 322.5,177.5C 322.671,172.506 320.338,170.672 315.5,172C 314.953,172.925 314.287,173.758 313.5,174.5C 313.167,174.167 312.833,173.833 312.5,173.5C 313.524,172.148 314.524,170.815 315.5,169.5 Z"/></g>
<g><path style="opacity:1" fill="#f8f8f8" d="M 316.5,179.5 C 318.5,179.5 320.5,179.5 322.5,179.5C 323,185.329 320.334,187.663 314.5,186.5C 314.166,183.812 314.832,181.479 316.5,179.5 Z"/></g>
<g><path style="opacity:1" fill="#b36957" d="M 201.5,179.5 C 201.817,182.546 200.484,184.213 197.5,184.5C 198.864,182.809 200.197,181.142 201.5,179.5 Z"/></g>
<g><path style="opacity:1" fill="#25272c" d="M 117.5,174.5 C 118.167,174.833 118.833,175.167 119.5,175.5C 119.5,175.833 119.5,176.167 119.5,176.5C 120.852,181.857 122.185,187.191 123.5,192.5C 123.5,193.5 123.5,194.5 123.5,195.5C 123.167,195.5 122.833,195.5 122.5,195.5C 120.051,188.702 118.384,181.702 117.5,174.5 Z"/></g>
<g><path style="opacity:1" fill="#212f38" d="M 150.5,190.5 C 149.094,190.973 148.427,191.973 148.5,193.5C 147.167,193.5 145.833,193.5 144.5,193.5C 145.363,190.077 146.53,186.744 148,183.5C 149.903,185.441 150.736,187.774 150.5,190.5 Z"/></g>
<g><path style="opacity:1" fill="#29353d" d="M 132.5,196.5 C 129.287,196.81 126.287,196.477 123.5,195.5C 127.706,190.736 130.04,185.069 130.5,178.5C 132.066,184.394 132.733,190.394 132.5,196.5 Z"/></g>
<g><path style="opacity:1" fill="#512822" d="M 201.5,179.5 C 201.833,179.5 202.167,179.5 202.5,179.5C 202.842,180.338 203.508,180.672 204.5,180.5C 202.73,183.196 201.064,186.029 199.5,189C 198.833,189.667 198.167,189.667 197.5,189C 199.007,188.163 199.507,186.996 199,185.5C 196.439,186.234 194.273,187.567 192.5,189.5C 192.5,188.833 192.167,188.5 191.5,188.5C 191.833,187.5 192.5,186.833 193.5,186.5C 194.995,186.011 196.329,185.345 197.5,184.5C 200.484,184.213 201.817,182.546 201.5,179.5 Z"/></g>
<g><path style="opacity:1" fill="#222c34" d="M 144.5,193.5 C 141.619,195.68 138.286,196.68 134.5,196.5C 134.77,192.912 135.604,189.245 137,185.5C 139,188.666 141.5,191.332 144.5,193.5 Z"/></g>
<g><path style="opacity:0.993" fill="#1e2b33" d="M 252.5,175.5 C 253.483,179.298 253.817,183.298 253.5,187.5C 247.018,186.165 246.851,186.832 253,189.5C 253.497,192.146 253.664,194.813 253.5,197.5C 252.348,200.815 250.015,202.982 246.5,204C 247.93,205.44 249.597,205.774 251.5,205C 254.885,202.471 257.218,199.304 258.5,195.5C 258.5,204.833 258.5,214.167 258.5,223.5C 249.167,223.5 239.833,223.5 230.5,223.5C 232.425,219.307 234.092,214.974 235.5,210.5C 237.345,206.833 238.512,202.833 239,198.5C 243.126,192.872 246.626,186.872 249.5,180.5C 250.752,178.999 251.752,177.332 252.5,175.5 Z"/></g>
<g><path style="opacity:1" fill="#724454" d="M 257.5,166.5 C 254.27,173.652 253.77,180.986 256,188.5C 256.708,187.619 257.542,186.953 258.5,186.5C 258.5,188.167 258.5,189.833 258.5,191.5C 257.31,193.869 255.643,195.869 253.5,197.5C 253.664,194.813 253.497,192.146 253,189.5C 246.851,186.832 247.018,186.165 253.5,187.5C 253.817,183.298 253.483,179.298 252.5,175.5C 253.615,172.113 255.282,169.113 257.5,166.5 Z"/></g>
<g><path style="opacity:1" fill="#1e1817" d="M 155.5,182.5 C 155.833,182.5 156.167,182.5 156.5,182.5C 157.833,183.833 159.167,185.167 160.5,186.5C 158.545,185.677 156.545,185.51 154.5,186C 158.513,187.346 161.18,190.013 162.5,194C 162.05,195.285 161.383,196.452 160.5,197.5C 161.833,198.62 162.333,199.953 162,201.5C 159.833,202.488 158,203.821 156.5,205.5C 153.366,206.901 150.366,208.568 147.5,210.5C 144.25,208.304 140.75,207.971 137,209.5C 137.573,207.196 138.74,205.029 140.5,203C 139.944,202.617 139.611,202.117 139.5,201.5C 143.1,199.57 146.1,196.903 148.5,193.5C 148.427,191.973 149.094,190.973 150.5,190.5C 152.308,189.082 152.975,187.082 152.5,184.5C 154.179,184.715 155.179,184.048 155.5,182.5 Z"/></g>
<g><path style="opacity:1" fill="#d07a80" d="M 190.5,189.5 C 188.214,196.076 184.047,201.076 178,204.5C 177.333,203.833 177.333,203.167 178,202.5C 182.867,200.065 185.034,196.398 184.5,191.5C 185.912,189.02 187.578,186.687 189.5,184.5C 189.342,186.011 189.675,187.678 190.5,189.5 Z"/></g>
<g><path style="opacity:1" fill="#f5d2c2" d="M 97.5,191.5 C 97.2053,193.735 97.5386,195.735 98.5,197.5C 98.345,202.023 100.345,205.189 104.5,207C 100.858,208.07 97.8579,207.236 95.5,204.5C 95.0679,203.29 94.4013,202.29 93.5,201.5C 93.5,201.167 93.5,200.833 93.5,200.5C 93.6716,199.508 93.3382,198.842 92.5,198.5C 92.5,197.833 92.5,197.167 92.5,196.5C 93.1082,192.528 93.6082,188.528 94,184.5C 95.2673,186.814 96.434,189.148 97.5,191.5 Z"/></g>
<g><path style="opacity:1" fill="#6b6e6e" d="M 111.5,198.5 C 107.072,196.646 104.906,193.313 105,188.5C 106.431,192.374 108.597,195.707 111.5,198.5 Z"/></g>
<g><path style="opacity:1" fill="#53474e" d="M 117.5,197.5 C 116.833,197.5 116.167,197.5 115.5,197.5C 114.272,194.925 112.605,192.592 110.5,190.5C 111,189.5 111.5,188.5 112,187.5C 114.112,190.727 115.945,194.06 117.5,197.5 Z"/></g>
<g><path style="opacity:0.996" fill="#956b7d" d="M 258.5,191.5 C 258.5,192.833 258.5,194.167 258.5,195.5C 257.218,199.304 254.885,202.471 251.5,205C 249.597,205.774 247.93,205.44 246.5,204C 250.015,202.982 252.348,200.815 253.5,197.5C 255.643,195.869 257.31,193.869 258.5,191.5 Z"/></g>
<g><path style="opacity:1" fill="#c98b7c" d="M 92.5,198.5 C 93.3382,198.842 93.6716,199.508 93.5,200.5C 85.8954,198.971 82.3954,194.305 83,186.5C 84.1392,189.583 85.4725,192.583 87,195.5C 88.4877,197.16 90.321,198.16 92.5,198.5 Z"/></g>
<g><path style="opacity:1" fill="#726866" d="M 97.5,191.5 C 98.1667,191.833 98.8333,192.167 99.5,192.5C 101.092,196.584 104.092,199.084 108.5,200C 104.447,200.559 101.28,199.059 99,195.5C 98.5357,196.094 98.369,196.761 98.5,197.5C 97.5386,195.735 97.2053,193.735 97.5,191.5 Z"/></g>
<g><path style="opacity:1" fill="#90533d" d="M 144.5,193.5 C 145.833,193.5 147.167,193.5 148.5,193.5C 146.1,196.903 143.1,199.57 139.5,201.5C 139.167,201.5 138.833,201.5 138.5,201.5C 134.124,202.112 133.457,200.946 136.5,198C 132.5,197.333 128.5,197.333 124.5,198C 125.696,198.654 125.696,199.154 124.5,199.5C 123.478,199.145 122.811,198.478 122.5,197.5C 122.5,196.833 122.5,196.167 122.5,195.5C 122.833,195.5 123.167,195.5 123.5,195.5C 126.287,196.477 129.287,196.81 132.5,196.5C 133.167,196.5 133.833,196.5 134.5,196.5C 138.286,196.68 141.619,195.68 144.5,193.5 Z"/></g>
<g><path style="opacity:1" fill="#bc7357" d="M 115.5,197.5 C 116.167,197.5 116.833,197.5 117.5,197.5C 119.167,197.5 120.833,197.5 122.5,197.5C 122.811,198.478 123.478,199.145 124.5,199.5C 125.696,199.154 125.696,198.654 124.5,198C 128.5,197.333 132.5,197.333 136.5,198C 133.457,200.946 134.124,202.112 138.5,201.5C 138.5,202.167 138.167,202.5 137.5,202.5C 134.164,202.533 130.997,201.866 128,200.5C 127.333,201.167 127.333,201.833 128,202.5C 129.771,203.304 131.271,204.471 132.5,206C 126.817,207.669 122.484,205.669 119.5,200C 118.552,199.517 117.552,199.351 116.5,199.5C 115.807,202.967 114.807,202.634 113.5,198.5C 114.492,198.672 115.158,198.338 115.5,197.5 Z"/></g>
<g><path style="opacity:1" fill="#e6ad89" d="M 111.5,198.5 C 111.833,198.5 112.167,198.5 112.5,198.5C 112.833,198.5 113.167,198.5 113.5,198.5C 114.807,202.634 115.807,202.967 116.5,199.5C 117.552,199.351 118.552,199.517 119.5,200C 122.484,205.669 126.817,207.669 132.5,206C 131.271,204.471 129.771,203.304 128,202.5C 127.333,201.833 127.333,201.167 128,200.5C 130.997,201.866 134.164,202.533 137.5,202.5C 135.58,205.339 133.913,208.339 132.5,211.5C 129.677,215.136 127.344,219.136 125.5,223.5C 117.167,223.5 108.833,223.5 100.5,223.5C 102.449,214.289 106.115,205.955 111.5,198.5 Z"/></g>
<g><path style="opacity:1" fill="#211a1a" d="M 192.5,154.5 C 192.833,154.5 193.167,154.5 193.5,154.5C 193.5,154.833 193.5,155.167 193.5,155.5C 193.5,156.167 193.5,156.833 193.5,157.5C 191.75,158.659 190.75,160.326 190.5,162.5C 187.731,163.771 186.398,165.938 186.5,169C 187.805,172.395 188.471,175.895 188.5,179.5C 187.156,182.374 185.99,185.374 185,188.5C 182.065,193.111 177.898,195.611 172.5,196C 173.593,197.365 174.926,197.699 176.5,197C 179.621,195.694 182.287,193.86 184.5,191.5C 185.034,196.398 182.867,200.065 178,202.5C 177.333,203.167 177.333,203.833 178,204.5C 184.047,201.076 188.214,196.076 190.5,189.5C 191.167,189.5 191.5,189.167 191.5,188.5C 192.167,188.5 192.5,188.833 192.5,189.5C 194.43,196.288 196.763,202.955 199.5,209.5C 198.89,210.391 198.557,211.391 198.5,212.5C 198.565,212.938 198.399,213.272 198,213.5C 194.85,211.588 191.684,210.922 188.5,211.5C 187.185,210.524 185.852,209.524 184.5,208.5C 183.833,209.167 183.167,209.833 182.5,210.5C 180.302,208.902 177.969,207.569 175.5,206.5C 172.068,204.248 168.734,201.748 165.5,199C 167.608,198.64 169.608,197.973 171.5,197C 170.252,196.139 168.919,195.639 167.5,195.5C 171.559,187.944 177.559,182.111 185.5,178C 184.944,177.617 184.611,177.117 184.5,176.5C 185.482,173.038 185.815,169.371 185.5,165.5C 188.582,162.341 190.916,158.675 192.5,154.5 Z"/></g>
<g><path style="opacity:1" fill="#98543d" d="M 223.5,168.5 C 220.276,174.396 218.776,180.73 219,187.5C 219.333,187.167 219.667,186.833 220,186.5C 220.583,188.002 221.416,189.335 222.5,190.5C 224.401,190.972 226.401,190.972 228.5,190.5C 229.766,191.09 231.099,191.59 232.5,192C 230.346,193.184 230.68,194.35 233.5,195.5C 238.89,191.943 243.056,187.276 246,181.5C 246.333,181.833 246.667,182.167 247,182.5C 247.417,181.244 248.25,180.577 249.5,180.5C 246.626,186.872 243.126,192.872 239,198.5C 238.512,202.833 237.345,206.833 235.5,210.5C 236.363,208.105 236.363,205.771 235.5,203.5C 234.808,204.025 234.308,204.692 234,205.5C 233.577,204.044 232.744,203.544 231.5,204C 228.333,206.833 225.167,209.667 222,212.5C 220.248,209.328 218.248,206.328 216,203.5C 216.374,205.769 216.374,208.102 216,210.5C 215.333,209.833 214.667,209.167 214,208.5C 213.595,212.213 213.595,215.879 214,219.5C 213.692,218.692 213.192,218.025 212.5,217.5C 211.833,218.5 211.167,219.5 210.5,220.5C 207.766,215.525 206.933,210.192 208,204.5C 211.598,196.475 214.765,188.309 217.5,180C 214.348,179.605 211.348,178.772 208.5,177.5C 210.869,176.31 212.869,174.643 214.5,172.5C 217.471,171.173 220.471,169.84 223.5,168.5 Z"/></g>
<g><path style="opacity:1" fill="#dea088" d="M 93.5,201.5 C 94.4013,202.29 95.0679,203.29 95.5,204.5C 93.1939,206.035 90.8605,207.202 88.5,208C 90.5389,206.074 92.2055,203.907 93.5,201.5 Z"/></g>
<g><path style="opacity:1" fill="#68412d" d="M 160.5,186.5 C 162.18,188.527 163.347,190.861 164,193.5C 165.302,194.085 166.469,194.751 167.5,195.5C 168.919,195.639 170.252,196.139 171.5,197C 169.608,197.973 167.608,198.64 165.5,199C 168.734,201.748 172.068,204.248 175.5,206.5C 174.833,206.5 174.5,206.833 174.5,207.5C 171.274,205.298 168.107,202.965 165,200.5C 164.167,201.333 163.333,202.167 162.5,203C 163.449,203.617 164.282,203.451 165,202.5C 167.478,204.639 169.978,206.639 172.5,208.5C 170.409,208.682 168.409,208.348 166.5,207.5C 165.537,207.97 165.537,208.637 166.5,209.5C 165.021,208.241 163.354,207.241 161.5,206.5C 161.5,205.833 161.167,205.5 160.5,205.5C 160.44,204.957 160.107,204.624 159.5,204.5C 158.482,205.193 157.482,205.859 156.5,206.5C 156.5,206.167 156.5,205.833 156.5,205.5C 158,203.821 159.833,202.488 162,201.5C 162.333,199.953 161.833,198.62 160.5,197.5C 161.383,196.452 162.05,195.285 162.5,194C 161.18,190.013 158.513,187.346 154.5,186C 156.545,185.51 158.545,185.677 160.5,186.5 Z"/></g>
<g><path style="opacity:1" fill="#ac6948" d="M 172.5,208.5 C 170.901,210.729 168.901,211.062 166.5,209.5C 165.537,208.637 165.537,207.97 166.5,207.5C 168.409,208.348 170.409,208.682 172.5,208.5 Z"/></g>
<g><path style="opacity:0.996" fill="#614a43" d="M 138.5,201.5 C 138.833,201.5 139.167,201.5 139.5,201.5C 139.611,202.117 139.944,202.617 140.5,203C 138.74,205.029 137.573,207.196 137,209.5C 140.75,207.971 144.25,208.304 147.5,210.5C 146.564,211.974 145.23,212.974 143.5,213.5C 141.671,213.595 139.671,213.262 137.5,212.5C 135.971,212.529 134.804,213.196 134,214.5C 133.667,212.953 134.167,211.62 135.5,210.5C 135.333,210.167 135.167,209.833 135,209.5C 134.292,210.381 133.458,211.047 132.5,211.5C 133.913,208.339 135.58,205.339 137.5,202.5C 138.167,202.5 138.5,202.167 138.5,201.5 Z"/></g>
<g><path style="opacity:1" fill="#ae6d46" d="M 160.5,205.5 C 161.167,205.5 161.5,205.833 161.5,206.5C 160.163,207.315 159.163,208.482 158.5,210C 157.365,210.749 156.365,210.583 155.5,209.5C 157.186,208.143 158.852,206.81 160.5,205.5 Z"/></g>
<g><path style="opacity:1" fill="#2c201e" d="M 160.5,205.5 C 158.852,206.81 157.186,208.143 155.5,209.5C 156.365,210.583 157.365,210.749 158.5,210C 159.163,208.482 160.163,207.315 161.5,206.5C 160.956,209.7 159.29,212.033 156.5,213.5C 156.167,213.5 155.833,213.5 155.5,213.5C 155.5,213.167 155.5,212.833 155.5,212.5C 155.44,211.957 155.107,211.624 154.5,211.5C 151.145,212.846 147.812,214.18 144.5,215.5C 148.104,212.025 152.104,209.025 156.5,206.5C 157.482,205.859 158.482,205.193 159.5,204.5C 160.107,204.624 160.44,204.957 160.5,205.5 Z"/></g>
<g><path style="opacity:1" fill="#332625" d="M 174.5,207.5 C 177.047,208.934 179.381,210.6 181.5,212.5C 181.5,213.167 181.167,213.5 180.5,213.5C 177.421,213.74 174.421,213.407 171.5,212.5C 170.537,212.97 170.537,213.637 171.5,214.5C 169.766,213.438 168.099,213.438 166.5,214.5C 167.268,213.133 167.268,211.467 166.5,209.5C 168.901,211.062 170.901,210.729 172.5,208.5C 169.978,206.639 167.478,204.639 165,202.5C 164.282,203.451 163.449,203.617 162.5,203C 163.333,202.167 164.167,201.333 165,200.5C 168.107,202.965 171.274,205.298 174.5,207.5 Z"/></g>
<g><path style="opacity:1" fill="#ad6c51" d="M 208.5,177.5 C 211.348,178.772 214.348,179.605 217.5,180C 214.765,188.309 211.598,196.475 208,204.5C 206.933,210.192 207.766,215.525 210.5,220.5C 211.167,219.5 211.833,218.5 212.5,217.5C 213.192,218.025 213.692,218.692 214,219.5C 213.595,215.879 213.595,212.213 214,208.5C 214.667,209.167 215.333,209.833 216,210.5C 216.374,208.102 216.374,205.769 216,203.5C 218.248,206.328 220.248,209.328 222,212.5C 225.167,209.667 228.333,206.833 231.5,204C 232.744,203.544 233.577,204.044 234,205.5C 234.308,204.692 234.808,204.025 235.5,203.5C 236.363,205.771 236.363,208.105 235.5,210.5C 234.092,214.974 232.425,219.307 230.5,223.5C 221.833,223.5 213.167,223.5 204.5,223.5C 203.607,218.483 201.94,213.817 199.5,209.5C 196.763,202.955 194.43,196.288 192.5,189.5C 194.273,187.567 196.439,186.234 199,185.5C 199.507,186.996 199.007,188.163 197.5,189C 198.167,189.667 198.833,189.667 199.5,189C 201.064,186.029 202.73,183.196 204.5,180.5C 205.833,179.5 207.167,178.5 208.5,177.5 Z"/></g>
<g><path style="opacity:1" fill="#896c5f" d="M 143.5,213.5 C 142.745,215.466 141.579,215.8 140,214.5C 137.117,216.847 134.617,219.514 132.5,222.5C 132.089,221.738 131.923,220.738 132,219.5C 130.933,220.191 129.766,220.691 128.5,221C 127.748,221.671 127.414,222.504 127.5,223.5C 126.833,223.5 126.167,223.5 125.5,223.5C 127.344,219.136 129.677,215.136 132.5,211.5C 133.458,211.047 134.292,210.381 135,209.5C 135.167,209.833 135.333,210.167 135.5,210.5C 134.167,211.62 133.667,212.953 134,214.5C 134.804,213.196 135.971,212.529 137.5,212.5C 139.671,213.262 141.671,213.595 143.5,213.5 Z"/></g>
<g><path style="opacity:1" fill="#c89678" d="M 174.5,207.5 C 174.5,206.833 174.833,206.5 175.5,206.5C 177.969,207.569 180.302,208.902 182.5,210.5C 183.167,209.833 183.833,209.167 184.5,208.5C 185.852,209.524 187.185,210.524 188.5,211.5C 191.5,214.833 194.5,218.167 197.5,221.5C 197.565,221.938 197.399,222.272 197,222.5C 193.5,219 190,215.5 186.5,212C 185.833,211.333 185.167,211.333 184.5,212C 185.71,213.039 186.71,214.206 187.5,215.5C 185.517,214.529 183.517,213.529 181.5,212.5C 179.381,210.6 177.047,208.934 174.5,207.5 Z"/></g>
<g><path style="opacity:0.996" fill="#544341" d="M 198.5,212.5 C 200.601,215.797 201.935,219.463 202.5,223.5C 201.5,223.5 200.5,223.5 199.5,223.5C 199.167,222.5 198.5,221.833 197.5,221.5C 194.5,218.167 191.5,214.833 188.5,211.5C 191.684,210.922 194.85,211.588 198,213.5C 198.399,213.272 198.565,212.938 198.5,212.5 Z"/></g>
<g><path style="opacity:1" fill="#836153" d="M 199.5,209.5 C 201.94,213.817 203.607,218.483 204.5,223.5C 203.833,223.5 203.167,223.5 202.5,223.5C 201.935,219.463 200.601,215.797 198.5,212.5C 198.557,211.391 198.89,210.391 199.5,209.5 Z"/></g>
<g><path style="opacity:1" fill="#bb9582" d="M 155.5,212.5 C 152.861,214.156 150.195,215.822 147.5,217.5C 146.261,217.058 145.261,216.391 144.5,215.5C 147.812,214.18 151.145,212.846 154.5,211.5C 155.107,211.624 155.44,211.957 155.5,212.5 Z"/></g>
<g><path style="opacity:1" fill="#b78d71" d="M 180.5,213.5 C 181.263,214.268 182.263,214.768 183.5,215C 181.731,216.314 179.731,217.147 177.5,217.5C 175.489,216.481 173.489,215.481 171.5,214.5C 170.537,213.637 170.537,212.97 171.5,212.5C 174.421,213.407 177.421,213.74 180.5,213.5 Z"/></g>
<g><path style="opacity:1" fill="#bc957a" d="M 156.5,205.5 C 156.5,205.833 156.5,206.167 156.5,206.5C 152.104,209.025 148.104,212.025 144.5,215.5C 140.854,217.817 137.52,220.484 134.5,223.5C 132.167,223.5 129.833,223.5 127.5,223.5C 127.414,222.504 127.748,221.671 128.5,221C 129.766,220.691 130.933,220.191 132,219.5C 131.923,220.738 132.089,221.738 132.5,222.5C 134.617,219.514 137.117,216.847 140,214.5C 141.579,215.8 142.745,215.466 143.5,213.5C 145.23,212.974 146.564,211.974 147.5,210.5C 150.366,208.568 153.366,206.901 156.5,205.5 Z"/></g>
<g><path style="opacity:1" fill="#ab7559" d="M 161.5,206.5 C 163.354,207.241 165.021,208.241 166.5,209.5C 167.268,211.467 167.268,213.133 166.5,214.5C 165.492,216.339 163.992,217.672 162,218.5C 160.296,216.627 158.463,214.96 156.5,213.5C 159.29,212.033 160.956,209.7 161.5,206.5 Z"/></g>
<g><path style="opacity:0.996" fill="#51403d" d="M 181.5,212.5 C 183.517,213.529 185.517,214.529 187.5,215.5C 189.833,218.167 192.167,220.833 194.5,223.5C 189.833,223.5 185.167,223.5 180.5,223.5C 177.306,220.728 174.306,217.728 171.5,214.5C 173.489,215.481 175.489,216.481 177.5,217.5C 179.731,217.147 181.731,216.314 183.5,215C 182.263,214.768 181.263,214.268 180.5,213.5C 181.167,213.5 181.5,213.167 181.5,212.5 Z"/></g>
<g><path style="opacity:1" fill="#7f6357" d="M 197.5,221.5 C 198.5,221.833 199.167,222.5 199.5,223.5C 197.833,223.5 196.167,223.5 194.5,223.5C 192.167,220.833 189.833,218.167 187.5,215.5C 186.71,214.206 185.71,213.039 184.5,212C 185.167,211.333 185.833,211.333 186.5,212C 190,215.5 193.5,219 197,222.5C 197.399,222.272 197.565,221.938 197.5,221.5 Z"/></g>
<g><path style="opacity:0.996" fill="#60433d" d="M 155.5,212.5 C 155.5,212.833 155.5,213.167 155.5,213.5C 152.473,217.194 149.14,220.527 145.5,223.5C 141.833,223.5 138.167,223.5 134.5,223.5C 137.52,220.484 140.854,217.817 144.5,215.5C 145.261,216.391 146.261,217.058 147.5,217.5C 150.195,215.822 152.861,214.156 155.5,212.5 Z"/></g>
<g><path style="opacity:0.996" fill="#d79976" d="M 155.5,213.5 C 155.833,213.5 156.167,213.5 156.5,213.5C 158.463,214.96 160.296,216.627 162,218.5C 163.992,217.672 165.492,216.339 166.5,214.5C 168.099,213.438 169.766,213.438 171.5,214.5C 174.306,217.728 177.306,220.728 180.5,223.5C 168.833,223.5 157.167,223.5 145.5,223.5C 149.14,220.527 152.473,217.194 155.5,213.5 Z"/></g>
</svg>
